STARTFONT 2.1
FONT -FontForge-Monoton-Book-R-Normal--16-160-72-72-P-108-ISO10646-1
SIZE 16 72 72
FONTBOUNDINGBOX 30 25 -3 -6
COMMENT "Generated by fontforge, http://fontforge.sourceforge.net"
COMMENT "Copyright (c) 2011 by vernon adams. All rights reserved."
STARTPROPERTIES 40
FOUNDRY "FontForge"
FAMILY_NAME "Monoton"
WEIGHT_NAME "Book"
SLANT "R"
SETWIDTH_NAME "Normal"
ADD_STYLE_NAME ""
PIXEL_SIZE 16
POINT_SIZE 160
RESOLUTION_X 72
RESOLUTION_Y 72
SPACING "P"
AVERAGE_WIDTH 108
CHARSET_REGISTRY "ISO10646"
CHARSET_ENCODING "1"
FONTNAME_REGISTRY ""
CHARSET_COLLECTIONS "ISO8859-2 ISO8859-9 ISO8859-4 ISO10646-1"
FONT_NAME "Monoton-Regular"
FACE_NAME "Monoton"
COPYRIGHT "Copyright (c) 2011 by vernon adams. All rights reserved."
FONT_VERSION "1.000"
FONT_ASCENT 13
FONT_DESCENT 3
UNDERLINE_POSITION -1
UNDERLINE_THICKNESS 1
X_HEIGHT 10
CAP_HEIGHT 12
DEFAULT_CHAR 1
RAW_ASCENT 799
RAW_DESCENT 200
NORM_SPACE 2
RELATIVE_WEIGHT 40
RELATIVE_SETWIDTH 50
SUPERSCRIPT_X 0
SUPERSCRIPT_Y 5
SUPERSCRIPT_SIZE 9
SUBSCRIPT_X 0
SUBSCRIPT_Y 1
SUBSCRIPT_SIZE 9
AVG_LOWERCASE_WIDTH 115
AVG_UPPERCASE_WIDTH 126
ENDPROPERTIES
CHARS 372
STARTCHAR glyph1.dup1
ENCODING 0
SWIDTH 108 0
DWIDTH 2 0
BBX 1 1 0 0
BITMAP
00
ENDCHAR
STARTCHAR uni0002
ENCODING 2
SWIDTH 108 0
DWIDTH 2 0
BBX 1 1 0 0
BITMAP
00
ENDCHAR
STARTCHAR uni0009
ENCODING 9
SWIDTH 108 0
DWIDTH 2 0
BBX 1 1 0 0
BITMAP
00
ENDCHAR
STARTCHAR uni000A
ENCODING 10
SWIDTH 108 0
DWIDTH 2 0
BBX 1 1 0 0
BITMAP
00
ENDCHAR
STARTCHAR uni000D
ENCODING 13
SWIDTH 108 0
DWIDTH 2 0
BBX 1 1 0 0
BITMAP
00
ENDCHAR
STARTCHAR space
ENCODING 32
SWIDTH 108 0
DWIDTH 2 0
BBX 1 1 0 0
BITMAP
00
ENDCHAR
STARTCHAR exclam
ENCODING 33
SWIDTH 336 0
DWIDTH 5 0
BBX 4 14 1 -1
BITMAP
B0
B0
B0
B0
B0
B0
B0
B0
B0
B0
00
F0
F0
F0
ENDCHAR
STARTCHAR quotedbl
ENCODING 34
SWIDTH 538 0
DWIDTH 9 0
BBX 7 5 1 8
BITMAP
AE
AE
AE
AE
AE
ENDCHAR
STARTCHAR numbersign
ENCODING 35
SWIDTH 1014 0
DWIDTH 16 0
BBX 16 15 0 -1
BITMAP
059C
069C
071C
1BEB
3BFB
3DFE
0E38
0E50
1670
1A70
7DFC
6FAC
EFEC
34E0
38E0
ENDCHAR
STARTCHAR dollar
ENCODING 36
SWIDTH 686 0
DWIDTH 11 0
BBX 11 17 0 -2
BITMAP
0A00
0D00
36C0
59E0
7F80
DF00
DA00
7D80
5340
3FC0
0F40
1740
2BC0
F540
6F80
1E00
0A00
ENDCHAR
STARTCHAR percent
ENCODING 37
SWIDTH 1504 0
DWIDTH 24 0
BBX 24 15 0 -1
BITMAP
040000
3F0E00
528E00
7F5600
DDDA00
EBDC78
BEDDFE
6DADB6
3EB77B
1F3BD7
003BB5
005AFD
00714A
0070B4
007078
ENDCHAR
STARTCHAR ampersand
ENCODING 38
SWIDTH 1029 0
DWIDTH 16 0
BBX 15 13 1 0
BITMAP
3F78
7F78
DF78
AF78
B078
BFFE
DFFE
BFFE
A078
BFF6
DFDE
7FAE
3F9E
ENDCHAR
STARTCHAR quotesingle
ENCODING 39
SWIDTH 257 0
DWIDTH 4 0
BBX 2 5 1 8
BITMAP
C0
C0
C0
C0
C0
ENDCHAR
STARTCHAR parenleft
ENCODING 40
SWIDTH 410 0
DWIDTH 7 0
BBX 5 15 1 -1
BITMAP
18
68
B0
D8
B8
B0
B0
B0
B0
B0
B0
E8
D8
78
38
ENDCHAR
STARTCHAR parenright
ENCODING 41
SWIDTH 408 0
DWIDTH 7 0
BBX 5 15 1 -1
BITMAP
C0
A0
70
D8
B8
78
78
78
78
78
78
B8
E8
D0
E0
ENDCHAR
STARTCHAR asterisk
ENCODING 42
SWIDTH 664 0
DWIDTH 11 0
BBX 10 9 0 2
BITMAP
0E00
2F80
76C0
D7C0
3D00
DFC0
7EC0
2F80
0E00
ENDCHAR
STARTCHAR plus
ENCODING 43
SWIDTH 601 0
DWIDTH 10 0
BBX 8 7 1 3
BITMAP
3C
3C
DF
DF
DF
3C
3C
ENDCHAR
STARTCHAR comma
ENCODING 44
SWIDTH 252 0
DWIDTH 4 0
BBX 2 5 1 -2
BITMAP
C0
C0
40
C0
C0
ENDCHAR
STARTCHAR hyphen
ENCODING 45
SWIDTH 473 0
DWIDTH 8 0
BBX 6 3 1 5
BITMAP
FC
FC
FC
ENDCHAR
STARTCHAR period
ENCODING 46
SWIDTH 255 0
DWIDTH 4 0
BBX 2 3 1 0
BITMAP
C0
C0
C0
ENDCHAR
STARTCHAR slash
ENCODING 47
SWIDTH 447 0
DWIDTH 7 0
BBX 7 15 0 -2
BITMAP
0E
14
1C
1C
1C
28
38
38
38
50
70
70
70
A0
E0
ENDCHAR
STARTCHAR zero
ENCODING 48
SWIDTH 843 0
DWIDTH 14 0
BBX 12 15 1 -1
BITMAP
0C00
3780
59C0
BF60
EFD0
B170
B0F0
A0F0
B0F0
B170
EDD0
BB60
55C0
3E80
0F00
ENDCHAR
STARTCHAR one
ENCODING 49
SWIDTH 426 0
DWIDTH 7 0
BBX 6 13 0 0
BITMAP
FC
FC
FC
3C
3C
3C
3C
3C
3C
3C
3C
3C
3C
ENDCHAR
STARTCHAR two
ENCODING 50
SWIDTH 583 0
DWIDTH 9 0
BBX 9 14 0 0
BITMAP
1400
FA00
C700
7D80
7B80
0780
0E80
1B00
2E00
3A00
7400
7F00
7F00
7F00
ENDCHAR
STARTCHAR three
ENCODING 51
SWIDTH 612 0
DWIDTH 10 0
BBX 9 15 0 -1
BITMAP
2C00
DB00
E680
7D80
7F80
0780
1B80
0680
1D80
1F80
5F80
6580
DE80
BB00
7C00
ENDCHAR
STARTCHAR four
ENCODING 52
SWIDTH 622 0
DWIDTH 10 0
BBX 9 13 1 0
BITMAP
1E00
3600
3A00
5C00
7400
BB00
EB00
F300
FF80
FF80
FF80
0300
0300
ENDCHAR
STARTCHAR five
ENCODING 53
SWIDTH 691 0
DWIDTH 11 0
BBX 11 14 0 -1
BITMAP
7F80
7F80
7F80
7000
7F00
7C80
73C0
7DA0
02E0
16A0
29A0
F740
6D80
1E00
ENDCHAR
STARTCHAR six
ENCODING 54
SWIDTH 781 0
DWIDTH 13 0
BBX 11 15 1 -1
BITMAP
0400
3F80
71C0
DF80
EE00
B600
BFC0
B0A0
BF60
B9E0
B5E0
DB60
65C0
3E80
0F00
ENDCHAR
STARTCHAR seven
ENCODING 55
SWIDTH 631 0
DWIDTH 10 0
BBX 10 13 0 0
BITMAP
FDC0
FF40
FF80
0780
0B80
0E80
0F00
0F00
1700
1D00
1E00
1E00
2E00
ENDCHAR
STARTCHAR eight
ENCODING 56
SWIDTH 808 0
DWIDTH 13 0
BBX 11 15 1 -1
BITMAP
1D00
6EC0
B1A0
FFE0
BFE0
B1A0
FEE0
A1A0
DFE0
BFE0
BFE0
F1E0
AEA0
7FC0
1F00
ENDCHAR
STARTCHAR nine
ENCODING 57
SWIDTH 782 0
DWIDTH 13 0
BBX 12 15 0 -1
BITMAP
0D00
36C0
59A0
7FD0
DF70
D9F0
B6F0
5FF0
3EF0
0FF0
0F70
11D0
7FA0
36C0
0F00
ENDCHAR
STARTCHAR colon
ENCODING 58
SWIDTH 262 0
DWIDTH 4 0
BBX 3 8 1 2
BITMAP
E0
00
E0
00
00
E0
E0
E0
ENDCHAR
STARTCHAR semicolon
ENCODING 59
SWIDTH 261 0
DWIDTH 4 0
BBX 3 10 1 0
BITMAP
E0
00
E0
00
00
A0
A0
60
A0
C0
ENDCHAR
STARTCHAR less
ENCODING 60
SWIDTH 670 0
DWIDTH 11 0
BBX 9 11 1 1
BITMAP
0380
0D80
7E80
B780
FB00
DC00
7F00
B680
7F80
0D80
0380
ENDCHAR
STARTCHAR equal
ENCODING 61
SWIDTH 473 0
DWIDTH 8 0
BBX 6 8 1 2
BITMAP
FC
00
FC
00
00
FC
FC
FC
ENDCHAR
STARTCHAR greater
ENCODING 62
SWIDTH 670 0
DWIDTH 11 0
BBX 9 11 1 1
BITMAP
C000
F800
B600
FD80
6B00
1F80
6D80
FE80
B700
D800
E000
ENDCHAR
STARTCHAR question
ENCODING 63
SWIDTH 693 0
DWIDTH 11 0
BBX 11 14 0 0
BITMAP
1600
6D80
F340
3FA0
1F60
02A0
2DA0
2FC0
2E80
2F00
2800
7800
7800
7800
ENDCHAR
STARTCHAR at
ENCODING 64
SWIDTH 1076 0
DWIDTH 17 0
BBX 17 15 0 -1
BITMAP
07F000
0BFC00
3FEA00
341D00
6BE700
75F680
B7DB80
DA3B80
AB3B80
76FF80
6B3A80
5CD500
2BCE00
1FE000
07E000
ENDCHAR
STARTCHAR A
ENCODING 65
SWIDTH 936 0
DWIDTH 15 0
BBX 15 13 0 0
BITMAP
05C0
07C0
0B60
0DE0
17D0
1F70
1EF0
36D8
3FF8
5C74
77DC
7BBC
D836
ENDCHAR
STARTCHAR B
ENCODING 66
SWIDTH 862 0
DWIDTH 14 0
BBX 12 13 1 0
BITMAP
FFC0
FFA0
BFD0
BF70
B0F0
BFF0
BFB0
BF70
B0F0
BF70
BFB0
BFE0
BFC0
ENDCHAR
STARTCHAR C
ENCODING 67
SWIDTH 852 0
DWIDTH 14 0
BBX 13 15 0 -1
BITMAP
0180
0F60
3CF0
37D8
6FF0
7820
D800
E800
D800
7820
6FE0
36D8
3D78
0FE0
0380
ENDCHAR
STARTCHAR D
ENCODING 68
SWIDTH 886 0
DWIDTH 14 0
BBX 13 13 1 0
BITMAP
FF80
FFE0
BF50
BFB0
B0E8
B0D8
B0B8
B0D8
B0E8
BFB0
BF50
FFE0
FF80
ENDCHAR
STARTCHAR E
ENCODING 69
SWIDTH 706 0
DWIDTH 11 0
BBX 10 13 1 0
BITMAP
BFC0
BFC0
BFC0
B000
B000
BE00
BE00
BE00
B000
B000
BFC0
BFC0
BFC0
ENDCHAR
STARTCHAR F
ENCODING 70
SWIDTH 683 0
DWIDTH 11 0
BBX 9 13 1 0
BITMAP
BF80
BF80
BF80
B000
B000
BF80
B000
BF80
BF80
B000
B000
B000
B000
ENDCHAR
STARTCHAR G
ENCODING 71
SWIDTH 908 0
DWIDTH 15 0
BBX 14 15 0 -1
BITMAP
0180
0F60
3CF0
37D8
6FF0
7820
D800
E83C
D03C
B83C
7F7C
56FC
2D7C
1BBC
07C0
ENDCHAR
STARTCHAR H
ENCODING 72
SWIDTH 901 0
DWIDTH 14 0
BBX 13 13 1 0
BITMAP
B058
B058
B058
B058
B058
BFB8
BFB8
BFB8
B058
B058
B058
B058
B058
ENDCHAR
STARTCHAR I
ENCODING 73
SWIDTH 338 0
DWIDTH 5 0
BBX 4 13 1 0
BITMAP
B0
B0
B0
B0
B0
B0
B0
B0
B0
B0
B0
B0
B0
ENDCHAR
STARTCHAR J
ENCODING 74
SWIDTH 434 0
DWIDTH 7 0
BBX 6 14 0 -1
BITMAP
3C
3C
3C
3C
3C
3C
3C
3C
3C
FC
2C
F8
D0
E0
ENDCHAR
STARTCHAR K
ENCODING 75
SWIDTH 815 0
DWIDTH 13 0
BBX 12 13 1 0
BITMAP
B1D0
B2E0
B3A0
B5C0
B740
BB80
BE80
BB80
B740
B5C0
B3A0
B2E0
B1D0
ENDCHAR
STARTCHAR L
ENCODING 76
SWIDTH 604 0
DWIDTH 10 0
BBX 8 13 1 0
BITMAP
B0
B0
B0
B0
B0
B0
B0
B0
B0
B0
BF
BF
BF
ENDCHAR
STARTCHAR M
ENCODING 77
SWIDTH 920 0
DWIDTH 15 0
BBX 13 13 1 0
BITMAP
E058
B068
F0B8
D8E8
B978
ADD8
BF78
B7F8
BDF8
B778
B078
B078
B078
ENDCHAR
STARTCHAR N
ENCODING 78
SWIDTH 877 0
DWIDTH 14 0
BBX 12 13 1 0
BITMAP
E8F0
B8F0
ECF0
BAF0
AEF0
BBF0
AF70
BDF0
B770
B5F0
B370
B1D0
B170
ENDCHAR
STARTCHAR O
ENCODING 79
SWIDTH 933 0
DWIDTH 15 0
BBX 15 15 0 -1
BITMAP
0180
0F60
3CF0
37D8
6FEC
783C
D83A
E836
D834
783C
6FEC
36D8
3D78
0FE0
0380
ENDCHAR
STARTCHAR P
ENCODING 80
SWIDTH 850 0
DWIDTH 14 0
BBX 12 13 1 0
BITMAP
FFC0
FFA0
BFD0
BF70
B0F0
B0F0
BFB0
BF50
BFE0
BF80
B000
B000
B000
ENDCHAR
STARTCHAR Q
ENCODING 81
SWIDTH 937 0
DWIDTH 15 0
BBX 15 16 0 -2
BITMAP
0180
0F60
3CF0
37D8
6FEC
783C
D83A
E836
D8F4
79BC
6FEC
36D8
3D78
0FE8
03B8
0010
ENDCHAR
STARTCHAR R
ENCODING 82
SWIDTH 843 0
DWIDTH 14 0
BBX 12 13 1 0
BITMAP
FFC0
FFA0
BFD0
BF70
B0F0
BF70
B0B0
BFE0
B040
BFC0
B3A0
B160
B1E0
ENDCHAR
STARTCHAR S
ENCODING 83
SWIDTH 682 0
DWIDTH 11 0
BBX 11 15 0 -1
BITMAP
0C00
37C0
59E0
7F80
DF00
DA00
BD80
5340
2FC0
1FA0
17A0
2BC0
F540
6F80
1E00
ENDCHAR
STARTCHAR T
ENCODING 84
SWIDTH 591 0
DWIDTH 9 0
BBX 9 13 0 0
BITMAP
FF80
FF80
FF80
1600
1600
1600
1600
1600
1600
1600
1600
1600
1600
ENDCHAR
STARTCHAR U
ENCODING 85
SWIDTH 905 0
DWIDTH 14 0
BBX 13 14 1 -1
BITMAP
B078
B078
B078
B078
B078
B078
B078
B078
F0B8
EB68
BDB0
5AE0
37C0
0F00
ENDCHAR
STARTCHAR V
ENCODING 86
SWIDTH 940 0
DWIDTH 15 0
BBX 15 13 0 0
BITMAP
D836
783C
745C
5C74
3C78
36D8
1EF0
1F70
17D0
0DE0
0B60
07C0
05C0
ENDCHAR
STARTCHAR W
ENCODING 87
SWIDTH 1161 0
DWIDTH 19 0
BBX 18 13 0 0
BITMAP
D9E3C0
B9F3C0
7B76C0
77B740
6FDF80
3ADB80
3EFD80
376F00
2FEF00
1BB700
1D3A00
1F3E00
0F1E00
ENDCHAR
STARTCHAR X
ENCODING 88
SWIDTH 876 0
DWIDTH 14 0
BBX 14 13 0 0
BITMAP
B8B8
6CE8
3BB0
2EE0
1BA0
15C0
0B40
0DA0
1760
1DD0
3770
5CD8
747C
ENDCHAR
STARTCHAR Y
ENCODING 89
SWIDTH 789 0
DWIDTH 13 0
BBX 12 13 0 0
BITMAP
D0F0
78B0
75E0
3D60
3BC0
1DC0
1F40
0B80
0E80
0F00
0F00
0F00
0F00
ENDCHAR
STARTCHAR Z
ENCODING 90
SWIDTH 854 0
DWIDTH 14 0
BBX 12 13 1 0
BITMAP
FFF0
FFB0
FEE0
FD50
07F0
0AA0
3FC0
5500
FE00
ABF0
FFF0
DFF0
FFF0
ENDCHAR
STARTCHAR bracketleft
ENCODING 91
SWIDTH 320 0
DWIDTH 5 0
BBX 4 15 1 -1
BITMAP
F0
F0
80
B0
A0
A0
A0
A0
A0
A0
A0
A0
B0
F0
F0
ENDCHAR
STARTCHAR backslash
ENCODING 92
SWIDTH 448 0
DWIDTH 7 0
BBX 7 15 0 -2
BITMAP
D0
B0
70
70
68
58
38
38
34
2C
1C
1C
1A
16
0E
ENDCHAR
STARTCHAR bracketright
ENCODING 93
SWIDTH 319 0
DWIDTH 5 0
BBX 4 15 0 -1
BITMAP
F0
D0
30
F0
70
70
70
70
70
70
70
70
F0
F0
F0
ENDCHAR
STARTCHAR asciicircum
ENCODING 94
SWIDTH 475 0
DWIDTH 8 0
BBX 7 6 0 5
BITMAP
18
34
3C
6C
66
A6
ENDCHAR
STARTCHAR underscore
ENCODING 95
SWIDTH 511 0
DWIDTH 8 0
BBX 6 3 1 -3
BITMAP
FC
FC
FC
ENDCHAR
STARTCHAR grave
ENCODING 96
SWIDTH 472 0
DWIDTH 8 0
BBX 7 4 0 11
BITMAP
70
EC
1A
04
ENDCHAR
STARTCHAR a
ENCODING 97
SWIDTH 832 0
DWIDTH 13 0
BBX 13 12 0 0
BITMAP
0700
1DC0
3AE0
6DB0
77E8
D8A8
E8B8
D8B8
75B8
5FB8
29B8
1FB8
ENDCHAR
STARTCHAR b
ENCODING 98
SWIDTH 720 0
DWIDTH 12 0
BBX 10 11 1 0
BITMAP
FF80
FF40
BEC0
A1C0
BEC0
BF40
BEC0
A1C0
BEC0
BF80
BF00
ENDCHAR
STARTCHAR c
ENCODING 99
SWIDTH 736 0
DWIDTH 12 0
BBX 11 13 0 -1
BITMAP
0F80
17C0
3F60
6AE0
7D80
D800
E800
D800
77C0
5DA0
2AE0
1FC0
0600
ENDCHAR
STARTCHAR d
ENCODING 100
SWIDTH 833 0
DWIDTH 13 0
BBX 12 11 1 0
BITMAP
FF80
FFC0
BF60
BED0
B170
B0B0
B1B0
BED0
BFA0
FF40
FF80
ENDCHAR
STARTCHAR e
ENCODING 101
SWIDTH 666 0
DWIDTH 11 0
BBX 9 11 1 0
BITMAP
BF80
BF80
BF80
B000
BF80
BF80
BF80
B000
BF80
BF80
BF80
ENDCHAR
STARTCHAR f
ENCODING 102
SWIDTH 625 0
DWIDTH 10 0
BBX 8 11 1 0
BITMAP
BF
BF
BF
B0
BF
BF
BF
B0
B0
B0
B0
ENDCHAR
STARTCHAR g
ENCODING 103
SWIDTH 827 0
DWIDTH 13 0
BBX 13 13 0 -1
BITMAP
0F80
17E0
3F50
6AE0
7D80
D800
E8A8
D8A8
76A8
5DA8
2AA8
1FA8
0600
ENDCHAR
STARTCHAR h
ENCODING 104
SWIDTH 830 0
DWIDTH 13 0
BBX 12 11 1 0
BITMAP
B150
B150
B150
BF50
B150
BF50
BF50
B150
B150
B150
B150
ENDCHAR
STARTCHAR i
ENCODING 105
SWIDTH 337 0
DWIDTH 5 0
BBX 4 11 1 0
BITMAP
B0
B0
B0
B0
B0
B0
B0
B0
B0
B0
B0
ENDCHAR
STARTCHAR j
ENCODING 106
SWIDTH 393 0
DWIDTH 6 0
BBX 6 13 0 -2
BITMAP
54
54
54
54
54
54
54
54
6C
F8
A8
F0
C0
ENDCHAR
STARTCHAR k
ENCODING 107
SWIDTH 801 0
DWIDTH 13 0
BBX 12 11 1 0
BITMAP
B1F0
B360
B5C0
B740
BB80
BE80
BB80
B740
B3C0
B360
B1F0
ENDCHAR
STARTCHAR l
ENCODING 108
SWIDTH 583 0
DWIDTH 9 0
BBX 8 11 1 0
BITMAP
B0
B0
B0
B0
B0
B0
B0
B0
BF
BF
BF
ENDCHAR
STARTCHAR m
ENCODING 109
SWIDTH 1167 0
DWIDTH 19 0
BBX 17 12 1 0
BITMAP
3E7C00
4FBF00
BD7300
EFDD80
B3A780
B3A780
B3A780
B3A780
B3A780
B3A780
B3A780
B3A780
ENDCHAR
STARTCHAR n
ENCODING 110
SWIDTH 787 0
DWIDTH 13 0
BBX 11 11 1 0
BITMAP
F8E0
B4E0
ECE0
BAE0
AEE0
BBE0
B760
ADE0
A760
A5E0
A3E0
ENDCHAR
STARTCHAR o
ENCODING 111
SWIDTH 833 0
DWIDTH 13 0
BBX 13 13 0 -1
BITMAP
0F80
17E0
3F50
6AB0
7DD8
D8B8
E878
D8B8
7768
5DB0
2AE0
1FC0
0600
ENDCHAR
STARTCHAR p
ENCODING 112
SWIDTH 781 0
DWIDTH 13 0
BBX 11 11 1 0
BITMAP
FF80
FFC0
BF60
BEE0
B1E0
BF60
B1C0
BE80
BF00
B000
B000
ENDCHAR
STARTCHAR q
ENCODING 113
SWIDTH 788 0
DWIDTH 13 0
BBX 12 13 0 -2
BITMAP
1FF0
3FF0
6FF0
BFF0
E8F0
D8F0
B7F0
7FF0
2FF0
1FF0
00F0
00F0
00F0
ENDCHAR
STARTCHAR r
ENCODING 114
SWIDTH 831 0
DWIDTH 13 0
BBX 12 11 1 0
BITMAP
FFC0
FFA0
BFD0
BF70
BF70
BFB0
B0E0
BF40
BFC0
B3C0
B360
ENDCHAR
STARTCHAR s
ENCODING 115
SWIDTH 683 0
DWIDTH 11 0
BBX 11 12 0 0
BITMAP
0500
3AC0
75E0
DB80
D000
6F80
7F40
1FC0
0140
7FA0
B340
7F80
ENDCHAR
STARTCHAR t
ENCODING 116
SWIDTH 588 0
DWIDTH 9 0
BBX 9 11 0 0
BITMAP
FF80
FF80
FF80
2E00
2E00
2E00
2E00
2E00
2E00
2E00
2E00
ENDCHAR
STARTCHAR u
ENCODING 117
SWIDTH 795 0
DWIDTH 13 0
BBX 11 12 1 -1
BITMAP
B1E0
B1E0
B1E0
B1E0
B1E0
B1E0
B1E0
EEE0
DBA0
7540
3F80
0E00
ENDCHAR
STARTCHAR v
ENCODING 118
SWIDTH 855 0
DWIDTH 14 0
BBX 13 11 0 0
BITMAP
F878
78D8
6CE8
3CF0
3BB0
2DE0
1EE0
1BA0
0BC0
0EC0
0780
ENDCHAR
STARTCHAR w
ENCODING 119
SWIDTH 1129 0
DWIDTH 18 0
BBX 16 11 1 0
BITMAP
B3CF
B3CF
B3CF
B3CF
B3CF
B3CF
B3CF
BDFF
DF7B
72CF
3FFC
ENDCHAR
STARTCHAR x
ENCODING 120
SWIDTH 790 0
DWIDTH 13 0
BBX 12 11 0 0
BITMAP
FDF0
5AE0
35A0
1EC0
1B80
0E80
1B40
2DC0
3760
6ED0
BDF0
ENDCHAR
STARTCHAR y
ENCODING 121
SWIDTH 733 0
DWIDTH 12 0
BBX 12 11 0 0
BITMAP
E9F0
7960
5FC0
3AC0
2F80
1B80
0E80
0F00
0F00
0F00
0F00
ENDCHAR
STARTCHAR z
ENCODING 122
SWIDTH 714 0
DWIDTH 11 0
BBX 11 11 0 0
BITMAP
7EE0
7FA0
7EC0
0B80
0E80
1B00
2D00
3600
5DE0
77E0
DFE0
ENDCHAR
STARTCHAR braceleft
ENCODING 123
SWIDTH 396 0
DWIDTH 6 0
BBX 6 17 0 -3
BITMAP
04
3C
30
6C
70
70
70
70
B0
D0
F0
70
70
70
6C
30
1C
ENDCHAR
STARTCHAR bar
ENCODING 124
SWIDTH 266 0
DWIDTH 4 0
BBX 3 15 1 -2
BITMAP
A0
A0
A0
A0
A0
A0
A0
A0
A0
A0
A0
A0
A0
A0
A0
ENDCHAR
STARTCHAR braceright
ENCODING 125
SWIDTH 396 0
DWIDTH 6 0
BBX 6 17 0 -3
BITMAP
E0
D0
28
F8
38
38
38
34
2C
3C
38
38
38
38
F8
28
F0
ENDCHAR
STARTCHAR asciitilde
ENCODING 126
SWIDTH 665 0
DWIDTH 11 0
BBX 9 3 1 9
BITMAP
7D80
FF80
BF00
ENDCHAR
STARTCHAR uni00A0
ENCODING 160
SWIDTH 108 0
DWIDTH 2 0
BBX 1 1 0 0
BITMAP
00
ENDCHAR
STARTCHAR exclamdown
ENCODING 161
SWIDTH 336 0
DWIDTH 5 0
BBX 4 14 1 -1
BITMAP
B0
B0
B0
B0
B0
B0
B0
B0
B0
B0
00
F0
F0
F0
ENDCHAR
STARTCHAR cent
ENCODING 162
SWIDTH 708 0
DWIDTH 11 0
BBX 11 15 0 -1
BITMAP
0500
0600
19C0
3FA0
6F40
7780
D800
E800
B900
7680
5F60
2FC0
1B80
0500
0500
ENDCHAR
STARTCHAR sterling
ENCODING 163
SWIDTH 689 0
DWIDTH 11 0
BBX 10 14 1 0
BITMAP
1A00
6D80
B3C0
FF00
BE00
B000
BF00
B000
BF00
B000
B000
BF00
BF00
BF00
ENDCHAR
STARTCHAR currency
ENCODING 164
SWIDTH 715 0
DWIDTH 11 0
BBX 11 12 0 0
BITMAP
6080
B160
5FC0
2FC0
30C0
60C0
60C0
50C0
2B80
5DC0
B760
60C0
ENDCHAR
STARTCHAR yen
ENCODING 165
SWIDTH 796 0
DWIDTH 13 0
BBX 12 13 0 0
BITMAP
D0F0
78B0
69E0
3DE0
37A0
1DC0
1740
0F80
0E80
3EE0
3EE0
0E80
0E80
ENDCHAR
STARTCHAR brokenbar
ENCODING 166
SWIDTH 263 0
DWIDTH 4 0
BBX 3 15 1 -2
BITMAP
A0
A0
A0
A0
A0
A0
00
00
A0
A0
A0
A0
A0
A0
A0
ENDCHAR
STARTCHAR section
ENCODING 167
SWIDTH 108 0
DWIDTH 2 0
BBX 1 1 0 0
BITMAP
00
ENDCHAR
STARTCHAR dieresis
ENCODING 168
SWIDTH 556 0
DWIDTH 9 0
BBX 7 2 1 12
BITMAP
AE
AE
ENDCHAR
STARTCHAR copyright
ENCODING 169
SWIDTH 869 0
DWIDTH 14 0
BBX 13 13 0 1
BITMAP
0300
1CC0
2030
67D0
4848
5008
9008
9008
5008
4848
2790
3030
0FC0
ENDCHAR
STARTCHAR ordfeminine
ENCODING 170
SWIDTH 833 0
DWIDTH 13 0
BBX 12 12 1 0
BITMAP
0700
3A80
75C0
DB60
EFD0
B170
A0F0
B0F0
EAF0
BEF0
5170
3F70
ENDCHAR
STARTCHAR guillemotleft
ENCODING 171
SWIDTH 911 0
DWIDTH 15 0
BBX 13 8 1 2
BITMAP
0C08
3478
D9B0
EDF8
78D0
B568
7CF8
0C18
ENDCHAR
STARTCHAR logicalnot
ENCODING 172
SWIDTH 718 0
DWIDTH 12 0
BBX 10 5 1 3
BITMAP
FFC0
01C0
FFC0
01C0
01C0
ENDCHAR
STARTCHAR registered
ENCODING 174
SWIDTH 869 0
DWIDTH 14 0
BBX 13 13 0 1
BITMAP
0300
1CC0
2030
6F10
48C8
4848
8848
8F88
4888
4888
2850
3030
0FC0
ENDCHAR
STARTCHAR degree
ENCODING 176
SWIDTH 330 0
DWIDTH 5 0
BBX 4 5 1 12
BITMAP
60
D0
B0
D0
60
ENDCHAR
STARTCHAR plusminus
ENCODING 177
SWIDTH 598 0
DWIDTH 10 0
BBX 8 9 1 1
BITMAP
3C
3C
DF
DF
DF
3C
3C
00
FF
ENDCHAR
STARTCHAR uni00B2
ENCODING 178
SWIDTH 435 0
DWIDTH 7 0
BBX 7 10 0 3
BITMAP
7C
7A
06
0C
14
18
30
60
FC
FC
ENDCHAR
STARTCHAR uni00B3
ENCODING 179
SWIDTH 515 0
DWIDTH 8 0
BBX 8 11 0 2
BITMAP
FC
7A
76
0D
3E
3A
3F
07
7B
7E
7C
ENDCHAR
STARTCHAR acute
ENCODING 180
SWIDTH 472 0
DWIDTH 8 0
BBX 6 4 1 11
BITMAP
18
6C
B0
C0
ENDCHAR
STARTCHAR uni00B5
ENCODING 181
SWIDTH 802 0
DWIDTH 13 0
BBX 11 13 1 -2
BITMAP
B1E0
B1E0
B1E0
B1E0
B1E0
B1E0
B1E0
B6E0
BBA0
B540
BF80
BE00
B000
ENDCHAR
STARTCHAR paragraph
ENCODING 182
SWIDTH 676 0
DWIDTH 11 0
BBX 9 13 1 -2
BITMAP
7F80
BF80
DF80
BF80
B780
FF80
A780
7F80
1F80
0780
0780
0780
0780
ENDCHAR
STARTCHAR periodcentered
ENCODING 183
SWIDTH 260 0
DWIDTH 4 0
BBX 2 3 1 6
BITMAP
C0
C0
C0
ENDCHAR
STARTCHAR cedilla
ENCODING 184
SWIDTH 321 0
DWIDTH 5 0
BBX 3 5 1 -6
BITMAP
60
E0
80
E0
E0
ENDCHAR
STARTCHAR uni00B9
ENCODING 185
SWIDTH 359 0
DWIDTH 6 0
BBX 5 9 0 4
BITMAP
F8
F8
38
38
38
38
38
38
38
ENDCHAR
STARTCHAR ordmasculine
ENCODING 186
SWIDTH 835 0
DWIDTH 13 0
BBX 12 13 1 -1
BITMAP
1F00
2FC0
7CA0
D760
E9B0
B0F0
A0F0
B170
EFD0
BB60
55C0
3E80
0F00
ENDCHAR
STARTCHAR guillemotright
ENCODING 187
SWIDTH 912 0
DWIDTH 15 0
BBX 13 8 1 2
BITMAP
8100
E3E0
7CD8
D9F8
74B0
EDD8
B160
C180
ENDCHAR
STARTCHAR onequarter
ENCODING 188
SWIDTH 1236 0
DWIDTH 20 0
BBX 19 15 0 -2
BITMAP
F87000
F8B000
38D080
38E340
38E380
396680
39A700
39CD60
39CFE0
02CFE0
034000
038FE0
038060
058000
068000
ENDCHAR
STARTCHAR onehalf
ENCODING 189
SWIDTH 1154 0
DWIDTH 18 0
BBX 18 15 0 -2
BITMAP
F87000
F8B000
38D000
38EF80
38EFC0
3960C0
39A140
39C180
39C300
02C600
034A00
038FC0
038FC0
058000
068000
ENDCHAR
STARTCHAR threequarters
ENCODING 190
SWIDTH 1345 0
DWIDTH 22 0
BBX 21 15 0 -2
BITMAP
FC1C00
7A1C00
762C10
0D38E0
3E3960
3A39C0
3D5AC0
0773A8
7B73F8
7E73F8
7CB000
00E3F8
00E028
00E000
016000
ENDCHAR
STARTCHAR questiondown
ENCODING 191
SWIDTH 693 0
DWIDTH 11 0
BBX 11 14 0 0
BITMAP
1600
6D80
F340
3FA0
1F60
02A0
2DA0
2FC0
2E80
2F00
2800
7800
7800
7800
ENDCHAR
STARTCHAR Agrave
ENCODING 192
SWIDTH 936 0
DWIDTH 15 0
BBX 15 18 0 0
BITMAP
1800
3E00
0780
0100
0000
05C0
07C0
0B60
0DE0
17D0
1F70
1EF0
36D8
3FF8
5C74
77DC
7BBC
D836
ENDCHAR
STARTCHAR Aacute
ENCODING 193
SWIDTH 936 0
DWIDTH 15 0
BBX 15 18 0 0
BITMAP
0030
00F8
03C0
0100
0000
05C0
07C0
0B60
0DE0
17D0
1F70
1EF0
36D8
3FF8
5C74
77DC
7BBC
D836
ENDCHAR
STARTCHAR Acircumflex
ENCODING 194
SWIDTH 936 0
DWIDTH 15 0
BBX 15 18 0 0
BITMAP
0280
0380
0740
06C0
0000
05C0
07C0
0B60
0DE0
17D0
1F70
1EF0
36D8
3FF8
5C74
77DC
7BBC
D836
ENDCHAR
STARTCHAR Atilde
ENCODING 195
SWIDTH 936 0
DWIDTH 15 0
BBX 15 17 0 0
BITMAP
0FB0
1FF0
13E0
0000
05C0
07C0
0B60
0DE0
17D0
1F70
1EF0
36D8
3FF8
5C74
77DC
7BBC
D836
ENDCHAR
STARTCHAR Adieresis
ENCODING 196
SWIDTH 936 0
DWIDTH 15 0
BBX 15 16 0 0
BITMAP
16D0
16D0
0000
05C0
07C0
0B60
0DE0
17D0
1F70
1EF0
36D8
3FF8
5C74
77DC
7BBC
D836
ENDCHAR
STARTCHAR Aring
ENCODING 197
SWIDTH 936 0
DWIDTH 15 0
BBX 15 18 0 0
BITMAP
0380
0540
06C0
0540
0380
05C0
07C0
0B60
0DE0
17D0
1F70
1EF0
36D8
3FF8
5C74
77DC
7BBC
D836
ENDCHAR
STARTCHAR AE
ENCODING 198
SWIDTH 1198 0
DWIDTH 19 0
BBX 19 13 0 0
BITMAP
05FFE0
07BFE0
0B7FE0
0DE000
17D000
1F7FC0
1EEFC0
36DFC0
3FF800
5C7800
77DFE0
7BBFE0
D837E0
ENDCHAR
STARTCHAR Ccedilla
ENCODING 199
SWIDTH 852 0
DWIDTH 14 0
BBX 13 20 0 -6
BITMAP
0180
0F60
3CF0
37D8
6FF0
7820
D800
E800
D800
7820
6FE0
36D8
3D78
0FE0
0380
0280
0500
0A00
0700
0700
ENDCHAR
STARTCHAR Egrave
ENCODING 200
SWIDTH 706 0
DWIDTH 11 0
BBX 11 18 0 0
BITMAP
7000
EC00
1A00
0400
0000
5FE0
5FE0
5FE0
5800
5800
5F00
5F00
5F00
5800
5800
5FE0
5FE0
5FE0
ENDCHAR
STARTCHAR Eacute
ENCODING 201
SWIDTH 706 0
DWIDTH 11 0
BBX 10 18 1 0
BITMAP
01C0
0780
1E00
0800
0000
BFC0
BFC0
BFC0
B000
B000
BE00
BE00
BE00
B000
B000
BFC0
BFC0
BFC0
ENDCHAR
STARTCHAR Ecircumflex
ENCODING 202
SWIDTH 706 0
DWIDTH 11 0
BBX 10 18 1 0
BITMAP
0C00
1C00
1600
3600
0000
BFC0
BFC0
BFC0
B000
B000
BE00
BE00
BE00
B000
B000
BFC0
BFC0
BFC0
ENDCHAR
STARTCHAR Edieresis
ENCODING 203
SWIDTH 706 0
DWIDTH 11 0
BBX 10 16 1 0
BITMAP
7580
7580
0000
BFC0
BFC0
BFC0
B000
B000
BE00
BE00
BE00
B000
B000
BFC0
BFC0
BFC0
ENDCHAR
STARTCHAR Igrave
ENCODING 204
SWIDTH 338 0
DWIDTH 5 0
BBX 8 18 -3 0
BITMAP
70
EC
1A
04
00
0B
0B
0B
0B
0B
0B
0B
0B
0B
0B
0B
0B
0B
ENDCHAR
STARTCHAR Iacute
ENCODING 205
SWIDTH 338 0
DWIDTH 5 0
BBX 7 18 1 0
BITMAP
0E
3C
F0
40
00
B0
B0
B0
B0
B0
B0
B0
B0
B0
B0
B0
B0
B0
ENDCHAR
STARTCHAR Icircumflex
ENCODING 206
SWIDTH 338 0
DWIDTH 5 0
BBX 5 18 0 0
BITMAP
30
70
58
D8
00
58
58
58
58
58
58
58
58
58
58
58
58
58
ENDCHAR
STARTCHAR Idieresis
ENCODING 207
SWIDTH 338 0
DWIDTH 5 0
BBX 8 16 -1 0
BITMAP
EB
EB
00
2C
2C
2C
2C
2C
2C
2C
2C
2C
2C
2C
2C
2C
ENDCHAR
STARTCHAR Eth
ENCODING 208
SWIDTH 905 0
DWIDTH 15 0
BBX 14 13 0 0
BITMAP
7FE0
7FD0
7FE8
7FB8
786C
FC3C
FC3C
FC3C
786C
7FB8
7FE8
7FD0
7FE0
ENDCHAR
STARTCHAR Ntilde
ENCODING 209
SWIDTH 877 0
DWIDTH 14 0
BBX 12 17 1 0
BITMAP
3F60
5FA0
6FC0
0000
E8F0
B8F0
ECF0
BAF0
AEF0
BBF0
AF70
BDF0
B770
B5F0
B370
B1D0
B170
ENDCHAR
STARTCHAR Ograve
ENCODING 210
SWIDTH 933 0
DWIDTH 15 0
BBX 15 19 0 -1
BITMAP
1800
3E00
0780
0100
0180
0F60
3CF0
37D8
6FEC
783C
D83A
E836
D834
783C
6FEC
36D8
3D78
0FE0
0380
ENDCHAR
STARTCHAR Oacute
ENCODING 211
SWIDTH 933 0
DWIDTH 15 0
BBX 15 19 0 -1
BITMAP
0030
00F8
03C0
0100
0180
0F60
3CF0
37D8
6FEC
783C
D83A
E836
D834
783C
6FEC
36D8
3D78
0FE0
0380
ENDCHAR
STARTCHAR Ocircumflex
ENCODING 212
SWIDTH 933 0
DWIDTH 15 0
BBX 15 19 0 -1
BITMAP
0280
0380
0740
06C0
0180
0F60
3CF0
37D8
6FEC
783C
D83A
E836
D834
783C
6FEC
36D8
3D78
0FE0
0380
ENDCHAR
STARTCHAR Otilde
ENCODING 213
SWIDTH 933 0
DWIDTH 15 0
BBX 15 18 0 -1
BITMAP
0FB0
1FF0
2BE0
0180
0F60
3CF0
37D8
6FEC
783C
D83A
E836
D834
783C
6FEC
36D8
3D78
0FE0
0380
ENDCHAR
STARTCHAR Odieresis
ENCODING 214
SWIDTH 933 0
DWIDTH 15 0
BBX 15 17 0 -1
BITMAP
14E0
14E0
0180
0F60
3CF0
37D8
6FEC
783C
D83A
E836
D834
783C
6FEC
36D8
3D78
0FE0
0380
ENDCHAR
STARTCHAR multiply
ENCODING 215
SWIDTH 790 0
DWIDTH 13 0
BBX 12 11 0 0
BITMAP
FDF0
5AE0
35A0
1EC0
1B80
0E80
1B40
2DC0
3760
6ED0
BDF0
ENDCHAR
STARTCHAR Oslash
ENCODING 216
SWIDTH 938 0
DWIDTH 15 0
BBX 15 18 0 -3
BITMAP
0030
01D8
0F30
3CF0
37D8
6FEC
783C
D83A
E836
D834
783C
6FEC
36D8
3978
2FE0
3B80
3800
0800
ENDCHAR
STARTCHAR Ugrave
ENCODING 217
SWIDTH 905 0
DWIDTH 14 0
BBX 13 19 1 -1
BITMAP
3000
7C00
0F00
0200
0000
B078
B078
B078
B078
B078
B078
B078
B078
F0B8
EB68
BDB0
5AE0
37C0
0F00
ENDCHAR
STARTCHAR Uacute
ENCODING 218
SWIDTH 905 0
DWIDTH 14 0
BBX 13 19 1 -1
BITMAP
00E0
0360
0580
0200
0000
B078
B078
B078
B078
B078
B078
B078
B078
F0B8
EB68
BDB0
5AE0
37C0
0F00
ENDCHAR
STARTCHAR Ucircumflex
ENCODING 219
SWIDTH 905 0
DWIDTH 14 0
BBX 13 19 1 -1
BITMAP
0600
0500
0B00
0E80
0000
B078
B078
B078
B078
B078
B078
B078
B078
F0B8
EB68
BDB0
5AE0
37C0
0F00
ENDCHAR
STARTCHAR Udieresis
ENCODING 220
SWIDTH 905 0
DWIDTH 14 0
BBX 13 17 1 -1
BITMAP
39C0
39C0
0000
B078
B078
B078
B078
B078
B078
B078
B078
F0B8
EB68
BDB0
5AE0
37C0
0F00
ENDCHAR
STARTCHAR Yacute
ENCODING 221
SWIDTH 789 0
DWIDTH 13 0
BBX 12 18 0 0
BITMAP
00E0
0370
0580
0200
0000
D0F0
78B0
75E0
3D60
3BC0
1DC0
1F40
0B80
0E80
0F00
0F00
0F00
0F00
ENDCHAR
STARTCHAR Thorn
ENCODING 222
SWIDTH 798 0
DWIDTH 13 0
BBX 11 15 1 -1
BITMAP
B000
B000
BF00
BFC0
BEA0
BF60
B1E0
B1E0
B1E0
BF60
BEA0
BFC0
BF00
B000
B000
ENDCHAR
STARTCHAR germandbls
ENCODING 223
SWIDTH 826 0
DWIDTH 13 0
BBX 12 15 1 -1
BITMAP
1E00
6FC0
B0A0
DFE0
BFD0
BFD0
B0E0
BFE0
BF70
B0B0
BFB0
BF60
BFC0
BF80
B000
ENDCHAR
STARTCHAR agrave
ENCODING 224
SWIDTH 832 0
DWIDTH 13 0
BBX 13 16 0 0
BITMAP
3000
7C00
0F00
0200
0700
1DC0
3AE0
6DB0
77E8
D8A8
E8B8
D8B8
75B8
5FB8
29B8
1FB8
ENDCHAR
STARTCHAR aacute
ENCODING 225
SWIDTH 832 0
DWIDTH 13 0
BBX 13 16 0 0
BITMAP
0060
01F0
0780
0200
0700
1DC0
3AE0
6DB0
77E8
D8A8
E8B8
D8B8
75B8
5FB8
29B8
1FB8
ENDCHAR
STARTCHAR acircumflex
ENCODING 226
SWIDTH 832 0
DWIDTH 13 0
BBX 13 17 0 0
BITMAP
0500
0700
0E80
0D80
0000
0700
1DC0
3AE0
6DB0
77E8
D8A8
E8B8
D8B8
75B8
5FB8
29B8
1FB8
ENDCHAR
STARTCHAR atilde
ENCODING 227
SWIDTH 832 0
DWIDTH 13 0
BBX 13 16 0 0
BITMAP
1F60
3FE0
5FC0
0000
0700
1DC0
3AE0
6DB0
77E8
D8A8
E8B8
D8B8
75B8
5FB8
29B8
1FB8
ENDCHAR
STARTCHAR adieresis
ENCODING 228
SWIDTH 832 0
DWIDTH 13 0
BBX 13 15 0 0
BITMAP
29C0
29C0
0000
0700
1DC0
3AE0
6DB0
77E8
D8A8
E8B8
D8B8
75B8
5FB8
29B8
1FB8
ENDCHAR
STARTCHAR aring
ENCODING 229
SWIDTH 832 0
DWIDTH 13 0
BBX 13 17 0 0
BITMAP
0700
0A80
0D80
0A80
0700
0700
1DC0
3AE0
6DB0
77E8
D8A8
E8B8
D8B8
75B8
5FB8
29B8
1FB8
ENDCHAR
STARTCHAR ae
ENCODING 230
SWIDTH 1166 0
DWIDTH 19 0
BBX 18 12 0 0
BITMAP
070000
1DDFC0
3AEFC0
6DBFC0
77E800
D8AFC0
E8BFC0
D8BFC0
75B800
5FBFC0
29BFC0
1FBFC0
ENDCHAR
STARTCHAR ccedilla
ENCODING 231
SWIDTH 736 0
DWIDTH 12 0
BBX 11 18 0 -6
BITMAP
0F80
17C0
3F60
6AE0
7D80
D800
E800
D800
77C0
5DA0
2AE0
1FC0
0600
0500
0A00
0C00
0E00
0E00
ENDCHAR
STARTCHAR egrave
ENCODING 232
SWIDTH 666 0
DWIDTH 11 0
BBX 10 16 0 0
BITMAP
6000
F800
1E00
0400
0000
5FC0
5FC0
5FC0
5800
5FC0
5FC0
5FC0
5800
5FC0
5FC0
5FC0
ENDCHAR
STARTCHAR eacute
ENCODING 233
SWIDTH 666 0
DWIDTH 11 0
BBX 10 16 1 0
BITMAP
0180
07C0
1E00
0800
0000
BF80
BF80
BF80
B000
BF80
BF80
BF80
B000
BF80
BF80
BF80
ENDCHAR
STARTCHAR ecircumflex
ENCODING 234
SWIDTH 666 0
DWIDTH 11 0
BBX 9 17 1 0
BITMAP
1400
1C00
2C00
3600
0000
0000
BF80
BF80
BF80
B000
BF80
BF80
BF80
B000
BF80
BF80
BF80
ENDCHAR
STARTCHAR edieresis
ENCODING 235
SWIDTH 666 0
DWIDTH 11 0
BBX 9 15 1 0
BITMAP
D700
D700
0000
0000
BF80
BF80
BF80
B000
BF80
BF80
BF80
B000
BF80
BF80
BF80
ENDCHAR
STARTCHAR igrave
ENCODING 236
SWIDTH 337 0
DWIDTH 5 0
BBX 8 16 -3 0
BITMAP
70
EC
1A
04
00
0B
0B
0B
0B
0B
0B
0B
0B
0B
0B
0B
ENDCHAR
STARTCHAR iacute
ENCODING 237
SWIDTH 337 0
DWIDTH 5 0
BBX 7 16 1 0
BITMAP
0E
3C
F0
40
00
B0
B0
B0
B0
B0
B0
B0
B0
B0
B0
B0
ENDCHAR
STARTCHAR icircumflex
ENCODING 238
SWIDTH 337 0
DWIDTH 5 0
BBX 5 17 0 0
BITMAP
30
70
58
D8
00
00
58
58
58
58
58
58
58
58
58
58
58
ENDCHAR
STARTCHAR idieresis
ENCODING 239
SWIDTH 337 0
DWIDTH 5 0
BBX 8 15 -1 0
BITMAP
EB
EB
00
00
2C
2C
2C
2C
2C
2C
2C
2C
2C
2C
2C
ENDCHAR
STARTCHAR eth
ENCODING 240
SWIDTH 783 0
DWIDTH 13 0
BBX 12 15 0 -1
BITMAP
0B00
36C0
79A0
1FD0
0F70
00F0
3FF0
5FF0
6FF0
DFF0
ED70
B2D0
5DA0
36C0
0F00
ENDCHAR
STARTCHAR ntilde
ENCODING 241
SWIDTH 787 0
DWIDTH 13 0
BBX 11 16 1 0
BITMAP
3EC0
7FC0
DF80
0000
2000
D8E0
B4E0
ECE0
BAE0
AEE0
BBE0
B760
ADE0
A760
A5E0
A3E0
ENDCHAR
STARTCHAR ograve
ENCODING 242
SWIDTH 833 0
DWIDTH 13 0
BBX 13 17 0 -1
BITMAP
3000
7C00
0F00
0200
0F80
17E0
3F50
6AB0
7DD8
D8B8
E878
D8B8
7768
5DB0
2AE0
1FC0
0600
ENDCHAR
STARTCHAR oacute
ENCODING 243
SWIDTH 833 0
DWIDTH 13 0
BBX 13 17 0 -1
BITMAP
0060
01F0
0780
0200
0F80
17E0
3F50
6AB0
7DD8
D8B8
E878
D8B8
7768
5DB0
2AE0
1FC0
0600
ENDCHAR
STARTCHAR ocircumflex
ENCODING 244
SWIDTH 833 0
DWIDTH 13 0
BBX 13 18 0 -1
BITMAP
0300
0700
0680
0D80
0000
0F80
17E0
3F50
6AB0
7DD8
D8B8
E878
D8B8
7768
5DB0
2AE0
1FC0
0600
ENDCHAR
STARTCHAR otilde
ENCODING 245
SWIDTH 833 0
DWIDTH 13 0
BBX 13 17 0 -1
BITMAP
1FD0
2FE0
37E0
0000
0F80
17E0
3F50
6AB0
7DD8
D8B8
E878
D8B8
7768
5DB0
2AE0
1FC0
0600
ENDCHAR
STARTCHAR odieresis
ENCODING 246
SWIDTH 833 0
DWIDTH 13 0
BBX 13 16 0 -1
BITMAP
1D40
1D40
0000
0F80
17E0
3F50
6AB0
7DD8
D8B8
E878
D8B8
7768
5DB0
2AE0
1FC0
0600
ENDCHAR
STARTCHAR divide
ENCODING 247
SWIDTH 260 0
DWIDTH 4 0
BBX 5 9 0 1
BITMAP
B0
B0
B0
00
F8
F8
B0
B0
B0
ENDCHAR
STARTCHAR oslash
ENCODING 248
SWIDTH 832 0
DWIDTH 13 0
BBX 13 15 0 -2
BITMAP
0060
0FD0
17E0
3F50
6AB0
7DE8
D8B8
E878
D8B8
7768
6DB0
3AE0
37C0
2F00
1000
ENDCHAR
STARTCHAR ugrave
ENCODING 249
SWIDTH 795 0
DWIDTH 13 0
BBX 11 17 1 -1
BITMAP
6000
F800
1E00
0400
0000
B1E0
B1E0
B1E0
B1E0
B1E0
B1E0
B1E0
EEE0
DBA0
7540
3F80
0E00
ENDCHAR
STARTCHAR uacute
ENCODING 250
SWIDTH 795 0
DWIDTH 13 0
BBX 11 17 1 -1
BITMAP
00C0
07E0
0B00
0400
0000
B1E0
B1E0
B1E0
B1E0
B1E0
B1E0
B1E0
EEE0
DBA0
7540
3F80
0E00
ENDCHAR
STARTCHAR ucircumflex
ENCODING 251
SWIDTH 795 0
DWIDTH 13 0
BBX 11 18 1 -1
BITMAP
0A00
0E00
1600
1B00
0000
0000
B1E0
B1E0
B1E0
B1E0
B1E0
B1E0
B1E0
EEE0
DBA0
7540
3F80
0E00
ENDCHAR
STARTCHAR udieresis
ENCODING 252
SWIDTH 795 0
DWIDTH 13 0
BBX 11 16 1 -1
BITMAP
6B80
6B80
0000
0000
B1E0
B1E0
B1E0
B1E0
B1E0
B1E0
B1E0
EEE0
DBA0
7540
3F80
0E00
ENDCHAR
STARTCHAR yacute
ENCODING 253
SWIDTH 733 0
DWIDTH 12 0
BBX 12 16 0 0
BITMAP
00C0
0360
0580
0600
4010
A9E0
7960
5FC0
3AC0
2F80
1B80
0E80
0F00
0F00
0F00
0F00
ENDCHAR
STARTCHAR thorn
ENCODING 254
SWIDTH 833 0
DWIDTH 13 0
BBX 12 15 1 -2
BITMAP
B000
B000
B000
BF80
B040
BFE0
B0B0
BFF0
BF70
BFD0
B0A0
BFC0
B000
B000
B000
ENDCHAR
STARTCHAR ydieresis
ENCODING 255
SWIDTH 733 0
DWIDTH 12 0
BBX 12 15 0 0
BITMAP
39C0
39C0
0000
4010
A9E0
7960
5FC0
3AC0
2F80
1B80
0E80
0F00
0F00
0F00
0F00
ENDCHAR
STARTCHAR Amacron
ENCODING 256
SWIDTH 936 0
DWIDTH 15 0
BBX 15 13 0 0
BITMAP
05C0
07C0
0B60
0DE0
17D0
1F70
1EF0
36D8
3FF8
5C74
77DC
7BBC
D836
ENDCHAR
STARTCHAR amacron
ENCODING 257
SWIDTH 832 0
DWIDTH 13 0
BBX 13 12 0 0
BITMAP
0700
1DC0
3AE0
6DB0
77E8
D8A8
E8B8
D8B8
75B8
5FB8
29B8
1FB8
ENDCHAR
STARTCHAR Abreve
ENCODING 258
SWIDTH 936 0
DWIDTH 15 0
BBX 15 16 0 0
BITMAP
07C0
0280
0000
05C0
07C0
0B60
0DE0
17D0
1F70
1EF0
36D8
3FF8
5C74
77DC
7BBC
D836
ENDCHAR
STARTCHAR abreve
ENCODING 259
SWIDTH 832 0
DWIDTH 13 0
BBX 13 14 0 0
BITMAP
0F80
0500
0700
1DC0
3AE0
6DB0
77E8
D8A8
E8B8
D8B8
75B8
5FB8
29B8
1FB8
ENDCHAR
STARTCHAR Aogonek
ENCODING 260
SWIDTH 937 0
DWIDTH 15 0
BBX 15 18 0 -5
BITMAP
05C0
07C0
0B60
0DE0
0FD0
1B70
1EF0
2ED8
3BF8
3C74
6FDC
7BBC
BB36
0500
0600
0B00
0B00
0B00
ENDCHAR
STARTCHAR aogonek
ENCODING 261
SWIDTH 832 0
DWIDTH 13 0
BBX 13 18 0 -6
BITMAP
0700
1DC0
3AE0
6DB0
77E8
D8A8
E8B8
D8B8
77B8
5DB8
2FB8
19B8
0600
0A00
0C00
1600
1600
1600
ENDCHAR
STARTCHAR Cacute
ENCODING 262
SWIDTH 852 0
DWIDTH 14 0
BBX 13 19 0 -1
BITMAP
0030
00F8
03C0
0100
0180
0F60
3CF0
37D8
6FF0
7820
D800
E800
D800
7820
6FE0
36D8
3D78
0FE0
0380
ENDCHAR
STARTCHAR cacute
ENCODING 263
SWIDTH 736 0
DWIDTH 12 0
BBX 12 17 0 -1
BITMAP
0060
01F0
0780
0200
0F80
17E0
3F50
6AE0
7D80
D800
E800
D800
77C0
5DA0
2AE0
1FC0
0600
ENDCHAR
STARTCHAR Cdotaccent
ENCODING 266
SWIDTH 852 0
DWIDTH 14 0
BBX 13 18 0 -1
BITMAP
0380
0380
0380
0180
0F60
3CF0
37D8
6FF0
7820
D800
E800
D800
7820
6FE0
36D8
3D78
0FE0
0380
ENDCHAR
STARTCHAR cdotaccent
ENCODING 267
SWIDTH 736 0
DWIDTH 12 0
BBX 11 16 0 -1
BITMAP
0700
0700
0700
0F80
17C0
3F60
6AE0
7D80
D800
E800
D800
77C0
5DA0
2AE0
1FC0
0600
ENDCHAR
STARTCHAR Ccaron
ENCODING 268
SWIDTH 852 0
DWIDTH 14 0
BBX 13 19 0 -1
BITMAP
06C0
0740
0380
0280
0180
0F60
3CF0
37D8
6FF0
7820
D800
E800
D800
7820
6FE0
36D8
3D78
0FE0
0380
ENDCHAR
STARTCHAR ccaron
ENCODING 269
SWIDTH 736 0
DWIDTH 12 0
BBX 11 18 0 -1
BITMAP
0D80
0680
0700
0300
0000
0F80
17C0
3F60
6AE0
7D80
D800
E800
D800
77C0
5DA0
2AE0
1FC0
0600
ENDCHAR
STARTCHAR Dcaron
ENCODING 270
SWIDTH 886 0
DWIDTH 14 0
BBX 13 18 1 0
BITMAP
0E80
0B00
0500
0600
0000
FF80
FFE0
BF50
BFB0
B0E8
B0D8
B0B8
B0D8
B0E8
BFB0
BF50
FFE0
FF80
ENDCHAR
STARTCHAR dcaron
ENCODING 271
SWIDTH 1084 0
DWIDTH 17 0
BBX 16 12 1 0
BITMAP
0007
FF87
FFC3
BF65
BED6
B170
B0B0
B170
BED0
BFA0
FF40
FF80
ENDCHAR
STARTCHAR Dcroat
ENCODING 272
SWIDTH 888 0
DWIDTH 14 0
BBX 15 13 -1 0
BITMAP
3FE0
3FF8
2FD4
2FEC
2C3A
AF36
AF2E
AF36
2C3A
2FEC
2FD4
3FF8
3FE0
ENDCHAR
STARTCHAR dcroat
ENCODING 273
SWIDTH 833 0
DWIDTH 13 0
BBX 14 11 -1 0
BITMAP
3FE0
3FF0
2FD8
2FB4
2C5C
AF2C
2C6C
2FB4
2FE8
3FD0
3FE0
ENDCHAR
STARTCHAR Emacron
ENCODING 274
SWIDTH 706 0
DWIDTH 11 0
BBX 10 13 1 0
BITMAP
BFC0
BFC0
BFC0
B000
B000
BE00
BE00
BE00
B000
B000
BFC0
BFC0
BFC0
ENDCHAR
STARTCHAR emacron
ENCODING 275
SWIDTH 666 0
DWIDTH 11 0
BBX 9 11 1 0
BITMAP
BF80
BF80
BF80
B000
BF80
BF80
BF80
B000
BF80
BF80
BF80
ENDCHAR
STARTCHAR Ebreve
ENCODING 276
SWIDTH 706 0
DWIDTH 11 0
BBX 10 16 1 0
BITMAP
3E00
0400
0000
BFC0
BFC0
BFC0
B000
B000
BE00
BE00
BE00
B000
B000
BFC0
BFC0
BFC0
ENDCHAR
STARTCHAR ebreve
ENCODING 277
SWIDTH 666 0
DWIDTH 11 0
BBX 9 14 1 0
BITMAP
3E00
1400
0000
BF80
BF80
BF80
B000
BF80
BF80
BF80
B000
BF80
BF80
BF80
ENDCHAR
STARTCHAR Edotaccent
ENCODING 278
SWIDTH 706 0
DWIDTH 11 0
BBX 10 17 1 0
BITMAP
1C00
1C00
1C00
0000
BFC0
BFC0
BFC0
B000
B000
BE00
BE00
BE00
B000
B000
BFC0
BFC0
BFC0
ENDCHAR
STARTCHAR edotaccent
ENCODING 279
SWIDTH 666 0
DWIDTH 11 0
BBX 9 15 1 0
BITMAP
1C00
1C00
1C00
0000
BF80
BF80
BF80
B000
BF80
BF80
BF80
B000
BF80
BF80
BF80
ENDCHAR
STARTCHAR Eogonek
ENCODING 280
SWIDTH 706 0
DWIDTH 11 0
BBX 10 18 1 -5
BITMAP
BFC0
BFC0
BFC0
B000
B000
BE00
BE00
BE00
B000
B000
BFC0
BFC0
BFC0
0140
0180
01C0
01C0
01C0
ENDCHAR
STARTCHAR eogonek
ENCODING 281
SWIDTH 666 0
DWIDTH 11 0
BBX 9 16 1 -5
BITMAP
BF80
BF80
BF80
B000
BF80
BF80
BF80
B000
BF80
BF80
BF80
0280
0300
0380
0380
0380
ENDCHAR
STARTCHAR Ecaron
ENCODING 282
SWIDTH 706 0
DWIDTH 11 0
BBX 10 18 1 0
BITMAP
3600
1600
1C00
0C00
0000
BFC0
BFC0
BFC0
B000
B000
BE00
BE00
BE00
B000
B000
BFC0
BFC0
BFC0
ENDCHAR
STARTCHAR ecaron
ENCODING 283
SWIDTH 666 0
DWIDTH 11 0
BBX 9 17 1 0
BITMAP
3600
2C00
1C00
1400
0000
0000
BF80
BF80
BF80
B000
BF80
BF80
BF80
B000
BF80
BF80
BF80
ENDCHAR
STARTCHAR Gbreve
ENCODING 286
SWIDTH 908 0
DWIDTH 15 0
BBX 14 17 0 -1
BITMAP
07C0
0280
0180
0F60
3CF0
37D8
6FF0
7820
D800
E83C
D03C
B83C
7F7C
56FC
2D7C
1BBC
07C0
ENDCHAR
STARTCHAR gbreve
ENCODING 287
SWIDTH 827 0
DWIDTH 13 0
BBX 13 15 0 -1
BITMAP
0F80
0100
0F80
17E0
3F50
6AE0
7D80
D800
E8A8
D8A8
76A8
5DA8
2AA8
1FA8
0600
ENDCHAR
STARTCHAR Gdotaccent
ENCODING 288
SWIDTH 908 0
DWIDTH 15 0
BBX 14 18 0 -1
BITMAP
0380
0380
0380
0180
0F60
3CF0
37D8
6FF0
7820
D800
E83C
D03C
B83C
7F7C
56FC
2D7C
1BBC
07C0
ENDCHAR
STARTCHAR gdotaccent
ENCODING 289
SWIDTH 827 0
DWIDTH 13 0
BBX 13 16 0 -1
BITMAP
0700
0700
0700
0F80
17E0
3F50
6AE0
7D80
D800
E8A8
D8A8
76A8
5DA8
2AA8
1FA8
0600
ENDCHAR
STARTCHAR Gcommaaccent
ENCODING 290
SWIDTH 908 0
DWIDTH 15 0
BBX 14 20 0 -6
BITMAP
0180
0F60
3CF0
37D8
6FF0
7820
D800
E83C
D03C
B83C
7F7C
56FC
2D7C
1BBC
07C0
0380
0380
0180
0280
0300
ENDCHAR
STARTCHAR gcommaaccent
ENCODING 291
SWIDTH 827 0
DWIDTH 13 0
BBX 13 13 0 -1
BITMAP
0F80
17E0
3F50
6AE0
7D80
D800
E8A8
D8A8
76A8
5DA8
2AA8
1FA8
0600
ENDCHAR
STARTCHAR Hcircumflex
ENCODING 292
SWIDTH 901 0
DWIDTH 14 0
BBX 13 18 1 0
BITMAP
0600
0500
0B00
0E80
0000
B058
B058
B058
B058
B058
BFB8
BFB8
BFB8
B058
B058
B058
B058
B058
ENDCHAR
STARTCHAR hcircumflex
ENCODING 293
SWIDTH 830 0
DWIDTH 13 0
BBX 12 17 1 0
BITMAP
0600
0E00
0D00
1B00
0000
0000
B150
B150
B150
BF50
B150
BF50
BF50
B150
B150
B150
B150
ENDCHAR
STARTCHAR Hbar
ENCODING 294
SWIDTH 901 0
DWIDTH 14 0
BBX 14 13 1 0
BITMAP
B058
BF5C
B058
BF5C
B058
BFB8
BFB8
BFB8
B058
B058
B058
B058
B058
ENDCHAR
STARTCHAR hbar
ENCODING 295
SWIDTH 830 0
DWIDTH 13 0
BBX 14 11 0 0
BITMAP
58A8
5FAC
BFAC
5FA8
58A8
5FA8
5FA8
58A8
58A8
58A8
58A8
ENDCHAR
STARTCHAR Itilde
ENCODING 296
SWIDTH 338 0
DWIDTH 5 0
BBX 9 17 -2 0
BITMAP
7E80
BF80
DF80
0000
1600
1600
1600
1600
1600
1600
1600
1600
1600
1600
1600
1600
1600
ENDCHAR
STARTCHAR itilde
ENCODING 297
SWIDTH 337 0
DWIDTH 5 0
BBX 9 16 -2 0
BITMAP
7E80
BF80
DF80
0000
0000
1600
1600
1600
1600
1600
1600
1600
1600
1600
1600
1600
ENDCHAR
STARTCHAR Imacron
ENCODING 298
SWIDTH 338 0
DWIDTH 5 0
BBX 4 13 1 0
BITMAP
B0
B0
B0
B0
B0
B0
B0
B0
B0
B0
B0
B0
B0
ENDCHAR
STARTCHAR imacron
ENCODING 299
SWIDTH 337 0
DWIDTH 5 0
BBX 4 11 1 0
BITMAP
B0
B0
B0
B0
B0
B0
B0
B0
B0
B0
B0
ENDCHAR
STARTCHAR Ibreve
ENCODING 300
SWIDTH 338 0
DWIDTH 5 0
BBX 5 16 0 0
BITMAP
F8
10
00
58
58
58
58
58
58
58
58
58
58
58
58
58
ENDCHAR
STARTCHAR ibreve
ENCODING 301
SWIDTH 337 0
DWIDTH 5 0
BBX 5 14 0 0
BITMAP
F8
10
00
58
58
58
58
58
58
58
58
58
58
58
ENDCHAR
STARTCHAR Iogonek
ENCODING 302
SWIDTH 338 0
DWIDTH 5 0
BBX 4 18 1 -5
BITMAP
B0
B0
B0
B0
B0
B0
B0
B0
B0
B0
B0
B0
B0
50
60
70
70
70
ENDCHAR
STARTCHAR iogonek
ENCODING 303
SWIDTH 337 0
DWIDTH 5 0
BBX 4 16 1 -5
BITMAP
B0
B0
B0
B0
B0
B0
B0
B0
B0
B0
B0
50
60
70
70
70
ENDCHAR
STARTCHAR Idotaccent
ENCODING 304
SWIDTH 338 0
DWIDTH 5 0
BBX 4 17 1 0
BITMAP
E0
E0
E0
00
B0
B0
B0
B0
B0
B0
B0
B0
B0
B0
B0
B0
B0
ENDCHAR
STARTCHAR dotlessi
ENCODING 305
SWIDTH 337 0
DWIDTH 5 0
BBX 4 11 1 0
BITMAP
B0
B0
B0
B0
B0
B0
B0
B0
B0
B0
B0
ENDCHAR
STARTCHAR IJ
ENCODING 306
SWIDTH 774 0
DWIDTH 12 0
BBX 11 14 1 -1
BITMAP
B160
B160
B160
B160
B160
B160
B160
B160
B160
B760
B3C0
B540
B780
0600
ENDCHAR
STARTCHAR ij
ENCODING 307
SWIDTH 729 0
DWIDTH 12 0
BBX 10 13 1 -2
BITMAP
B3C0
B3C0
B3C0
B3C0
B3C0
B3C0
B3C0
B3C0
B5C0
B2C0
B780
0500
0600
ENDCHAR
STARTCHAR Jcircumflex
ENCODING 308
SWIDTH 434 0
DWIDTH 7 0
BBX 7 19 0 -1
BITMAP
14
1C
2C
36
00
3C
3C
3C
3C
3C
3C
3C
3C
3C
FC
2C
F8
D0
E0
ENDCHAR
STARTCHAR jcircumflex
ENCODING 309
SWIDTH 393 0
DWIDTH 6 0
BBX 6 19 0 -2
BITMAP
18
38
34
6C
00
00
54
54
54
54
54
54
54
54
6C
F8
A8
F0
C0
ENDCHAR
STARTCHAR Kcommaaccent
ENCODING 310
SWIDTH 815 0
DWIDTH 13 0
BBX 12 19 1 -6
BITMAP
B1D0
B2E0
B3A0
B5C0
B740
BB80
BE80
BB80
B740
B5C0
B3A0
B2E0
B1D0
0000
0E00
0E00
0600
0600
0E00
ENDCHAR
STARTCHAR kcommaaccent
ENCODING 311
SWIDTH 801 0
DWIDTH 13 0
BBX 12 17 1 -6
BITMAP
B1F0
B360
B5C0
B740
BB80
BE80
BB80
B740
B3C0
B360
B1E0
0010
0E00
0E00
0600
0E00
0C00
ENDCHAR
STARTCHAR kgreenlandic
ENCODING 312
SWIDTH 801 0
DWIDTH 13 0
BBX 12 11 1 0
BITMAP
B1F0
B360
B5C0
B740
BB80
BE80
BB80
B740
B3C0
B360
B1F0
ENDCHAR
STARTCHAR Lacute
ENCODING 313
SWIDTH 604 0
DWIDTH 10 0
BBX 9 18 1 0
BITMAP
0300
0D80
1600
1800
0000
B000
B000
B000
B000
B000
B000
B000
B000
B000
B000
BF00
BF00
BF00
ENDCHAR
STARTCHAR lacute
ENCODING 314
SWIDTH 583 0
DWIDTH 9 0
BBX 8 16 1 0
BITMAP
0E
3C
F0
40
00
B0
B0
B0
B0
B0
B0
B0
B0
BF
BF
BF
ENDCHAR
STARTCHAR Lcommaaccent
ENCODING 315
SWIDTH 604 0
DWIDTH 10 0
BBX 8 19 1 -6
BITMAP
B0
B0
B0
B0
B0
B0
B0
B0
B0
B0
BF
BF
BF
00
34
34
14
18
18
ENDCHAR
STARTCHAR lcommaaccent
ENCODING 316
SWIDTH 583 0
DWIDTH 9 0
BBX 8 17 1 -6
BITMAP
B0
B0
B0
B0
B0
B0
B0
B0
BF
BF
BF
00
38
38
18
18
38
ENDCHAR
STARTCHAR Lcaron
ENCODING 317
SWIDTH 856 0
DWIDTH 14 0
BBX 12 14 1 0
BITMAP
0070
B070
B030
B030
B070
B000
B000
B000
B000
B000
B000
BF00
BF00
BF00
ENDCHAR
STARTCHAR lcaron
ENCODING 318
SWIDTH 584 0
DWIDTH 9 0
BBX 8 12 1 0
BITMAP
07
B7
B3
B5
B6
B0
B0
B0
B0
BF
BF
BF
ENDCHAR
STARTCHAR Ldot
ENCODING 319
SWIDTH 604 0
DWIDTH 10 0
BBX 8 13 1 0
BITMAP
B0
B0
B0
B0
B0
B6
B6
B6
B0
B0
BF
BF
BF
ENDCHAR
STARTCHAR ldot
ENCODING 320
SWIDTH 582 0
DWIDTH 9 0
BBX 8 11 1 0
BITMAP
B0
B0
B6
B6
B6
B0
B0
B0
BF
BF
BF
ENDCHAR
STARTCHAR Lslash
ENCODING 321
SWIDTH 604 0
DWIDTH 10 0
BBX 10 13 -1 0
BITMAP
2C00
2C00
2C00
2F00
2D00
AF00
DC00
5C00
AC00
2C00
2FC0
2FC0
2FC0
ENDCHAR
STARTCHAR lslash
ENCODING 322
SWIDTH 581 0
DWIDTH 9 0
BBX 10 11 -1 0
BITMAP
2C00
2C00
2F00
2F00
AF00
AC00
DC00
2C00
2FC0
2FC0
2FC0
ENDCHAR
STARTCHAR Nacute
ENCODING 323
SWIDTH 877 0
DWIDTH 14 0
BBX 12 18 1 0
BITMAP
00C0
0360
0580
0200
0000
E8F0
B8F0
ECF0
BAF0
AEF0
BBF0
AF70
BDF0
B770
B5F0
B370
B1D0
B170
ENDCHAR
STARTCHAR nacute
ENCODING 324
SWIDTH 787 0
DWIDTH 13 0
BBX 11 16 1 0
BITMAP
01C0
06E0
0B00
0400
2000
D8E0
B4E0
ECE0
BAE0
AEE0
BBE0
B760
ADE0
A760
A5E0
A3E0
ENDCHAR
STARTCHAR Ncommaaccent
ENCODING 325
SWIDTH 877 0
DWIDTH 14 0
BBX 12 19 1 -6
BITMAP
E8F0
B8F0
ECF0
BAF0
AEF0
BBF0
AF70
BDF0
B770
B5F0
B370
B1D0
B170
0000
0A00
0A00
0200
0500
0600
ENDCHAR
STARTCHAR ncommaaccent
ENCODING 326
SWIDTH 787 0
DWIDTH 13 0
BBX 11 17 1 -6
BITMAP
F8E0
B4E0
ECE0
BAE0
AEE0
BBE0
B760
ADE0
A760
A5E0
A3E0
0000
0E00
0E00
0600
0A00
0C00
ENDCHAR
STARTCHAR Ncaron
ENCODING 327
SWIDTH 877 0
DWIDTH 14 0
BBX 12 18 1 0
BITMAP
0F00
0F00
0D00
0600
0000
E8F0
B8F0
ECF0
BAF0
AEF0
BBF0
AF70
BDF0
B770
B5F0
B370
B1D0
B170
ENDCHAR
STARTCHAR ncaron
ENCODING 328
SWIDTH 787 0
DWIDTH 13 0
BBX 11 17 1 0
BITMAP
1B00
1600
0E00
0A00
0000
2000
D8E0
B4E0
ECE0
BAE0
AEE0
BBE0
B760
ADE0
A760
A5E0
A3E0
ENDCHAR
STARTCHAR Eng
ENCODING 330
SWIDTH 874 0
DWIDTH 14 0
BBX 12 18 1 -5
BITMAP
E8F0
B8F0
ECF0
BAF0
EEF0
BBF0
AEF0
BBF0
B6F0
B3F0
B2F0
B1F0
B0F0
00F0
0370
03D0
03A0
03C0
ENDCHAR
STARTCHAR eng
ENCODING 331
SWIDTH 691 0
DWIDTH 11 0
BBX 9 15 1 -4
BITMAP
FB80
B780
EF80
BB80
AF80
BF80
B780
AF80
A780
A780
A380
0380
0780
0280
0700
ENDCHAR
STARTCHAR Omacron
ENCODING 332
SWIDTH 933 0
DWIDTH 15 0
BBX 15 15 0 -1
BITMAP
0180
0F60
3CF0
37D8
6FEC
783C
D83A
E836
D834
783C
6FEC
36D8
3D78
0FE0
0380
ENDCHAR
STARTCHAR omacron
ENCODING 333
SWIDTH 833 0
DWIDTH 13 0
BBX 13 13 0 -1
BITMAP
0F80
17E0
3F50
6AB0
7DD8
D8B8
E878
D8B8
7768
5DB0
2AE0
1FC0
0600
ENDCHAR
STARTCHAR Obreve
ENCODING 334
SWIDTH 933 0
DWIDTH 15 0
BBX 15 17 0 -1
BITMAP
07C0
0280
0180
0F60
3CF0
37D8
6FEC
783C
D83A
E836
D834
783C
6FEC
36D8
3D78
0FE0
0380
ENDCHAR
STARTCHAR obreve
ENCODING 335
SWIDTH 833 0
DWIDTH 13 0
BBX 13 15 0 -1
BITMAP
0F80
0100
0F80
17E0
3F50
6AB0
7DD8
D8B8
E878
D8B8
7768
5DB0
2AE0
1FC0
0600
ENDCHAR
STARTCHAR Ohungarumlaut
ENCODING 336
SWIDTH 933 0
DWIDTH 15 0
BBX 16 19 0 -1
BITMAP
0186
07DF
1E78
0820
0180
0F60
3CF0
37D8
6FEC
783C
D83A
E836
D834
783C
6FEC
36D8
3D78
0FE0
0380
ENDCHAR
STARTCHAR ohungarumlaut
ENCODING 337
SWIDTH 833 0
DWIDTH 13 0
BBX 15 17 0 -1
BITMAP
038C
0F3E
3CF0
1040
0F80
17E0
3F50
6AB0
7DD8
D8B8
E878
D8B8
7768
5DB0
2AE0
1FC0
0600
ENDCHAR
STARTCHAR OE
ENCODING 338
SWIDTH 1317 0
DWIDTH 21 0
BBX 20 15 0 -1
BITMAP
018000
0F77F0
3CF7F0
37D7F0
6FF600
783600
D837C0
E837C0
D837C0
B83600
6FF600
36D7F0
3977F0
0FF7F0
038000
ENDCHAR
STARTCHAR oe
ENCODING 339
SWIDTH 1174 0
DWIDTH 19 0
BBX 18 13 0 -1
BITMAP
0F8000
17FFC0
3F7FC0
6ABFC0
7DF800
D8BFC0
E87FC0
D8BFC0
777800
5DBFC0
2AFFC0
1FFFC0
070000
ENDCHAR
STARTCHAR Racute
ENCODING 340
SWIDTH 843 0
DWIDTH 14 0
BBX 12 18 1 0
BITMAP
0300
0F80
3C00
1000
0000
FFC0
FFA0
BFD0
BF70
B0F0
BF70
B0B0
BFE0
B040
BFC0
B3A0
B160
B1E0
ENDCHAR
STARTCHAR Rcommaaccent
ENCODING 342
SWIDTH 843 0
DWIDTH 14 0
BBX 12 19 1 -6
BITMAP
FFC0
FFA0
BFD0
BF70
B0F0
BF70
B0B0
BFE0
B040
BFC0
B3A0
B160
B1E0
0000
0E00
0E00
0600
0E00
0C00
ENDCHAR
STARTCHAR rcommaaccent
ENCODING 343
SWIDTH 831 0
DWIDTH 13 0
BBX 12 17 1 -6
BITMAP
FFC0
FFA0
BFD0
BF70
BF70
BFB0
B0E0
BF40
BFC0
B3C0
B360
0000
0E00
0E00
0600
0A00
0C00
ENDCHAR
STARTCHAR Rcaron
ENCODING 344
SWIDTH 843 0
DWIDTH 14 0
BBX 12 18 1 0
BITMAP
6C00
5400
3800
2800
0000
FFC0
FFA0
BFD0
BF70
B0F0
BF70
B0B0
BFE0
B040
BFC0
B3A0
B160
B1E0
ENDCHAR
STARTCHAR rcaron
ENCODING 345
SWIDTH 831 0
DWIDTH 13 0
BBX 12 17 1 0
BITMAP
1B00
0F00
0E00
0600
0000
0000
FFC0
FFA0
BFD0
BF70
BF70
BFB0
B0E0
BF40
BFC0
B3C0
B360
ENDCHAR
STARTCHAR Sacute
ENCODING 346
SWIDTH 682 0
DWIDTH 11 0
BBX 11 19 0 -1
BITMAP
00C0
03E0
0F00
0400
0C00
37C0
59E0
7F80
DF00
DA00
BD80
5340
2FC0
1FA0
17A0
2BC0
F540
6F80
1E00
ENDCHAR
STARTCHAR sacute
ENCODING 347
SWIDTH 683 0
DWIDTH 11 0
BBX 11 16 0 0
BITMAP
00C0
03E0
0F00
0400
0500
3AC0
75E0
DB80
D000
6F80
7F40
1FC0
0140
7FA0
B340
7F80
ENDCHAR
STARTCHAR Scircumflex
ENCODING 348
SWIDTH 682 0
DWIDTH 11 0
BBX 11 19 0 -1
BITMAP
0A00
0E00
1600
1B00
0C00
37C0
59E0
7F80
DF00
DA00
BD80
5340
2FC0
1FA0
17A0
2BC0
F540
6F80
1E00
ENDCHAR
STARTCHAR scircumflex
ENCODING 349
SWIDTH 683 0
DWIDTH 11 0
BBX 11 17 0 0
BITMAP
0A00
0E00
1600
1B00
0000
0500
3AC0
75E0
DB80
D000
6F80
7F40
1FC0
0140
7FA0
B340
7F80
ENDCHAR
STARTCHAR Scedilla
ENCODING 350
SWIDTH 682 0
DWIDTH 11 0
BBX 11 20 0 -6
BITMAP
0C00
37C0
59E0
7F80
DF00
DA00
BD80
5340
2FC0
1FA0
17A0
2BC0
F540
6F80
1E00
0C00
1400
2800
2C00
1C00
ENDCHAR
STARTCHAR scedilla
ENCODING 351
SWIDTH 683 0
DWIDTH 11 0
BBX 11 17 0 -5
BITMAP
0500
3AC0
75E0
DB80
D000
6F80
7F40
1FC0
0140
7FA0
BB40
7580
0A00
1400
2800
1C00
1C00
ENDCHAR
STARTCHAR Scaron
ENCODING 352
SWIDTH 682 0
DWIDTH 11 0
BBX 11 19 0 -1
BITMAP
1B00
1500
0E00
0A00
0C00
37C0
59E0
7F80
DF00
DA00
BD80
5340
2FC0
1FA0
17A0
2BC0
F540
6F80
1E00
ENDCHAR
STARTCHAR scaron
ENCODING 353
SWIDTH 683 0
DWIDTH 11 0
BBX 11 17 0 0
BITMAP
1B00
1500
0E00
0A00
0000
0500
3AC0
75E0
DB80
D000
6F80
7F40
1FC0
0140
7FA0
B340
7F80
ENDCHAR
STARTCHAR Tcommaaccent
ENCODING 354
SWIDTH 591 0
DWIDTH 9 0
BBX 9 18 0 -5
BITMAP
FF80
FF80
FF80
1600
1600
1600
1600
1600
1600
1600
1600
1600
1600
1400
2C00
3000
3C00
1C00
ENDCHAR
STARTCHAR tcommaaccent
ENCODING 355
SWIDTH 588 0
DWIDTH 9 0
BBX 9 16 0 -5
BITMAP
FF80
FF80
FF80
2E00
2E00
2E00
2E00
2E00
2E00
2E00
2E00
1400
2C00
3000
3C00
1C00
ENDCHAR
STARTCHAR Tcaron
ENCODING 356
SWIDTH 591 0
DWIDTH 9 0
BBX 9 18 0 0
BITMAP
3600
1600
1C00
0C00
0000
FF80
FF80
FF80
1600
1600
1600
1600
1600
1600
1600
1600
1600
1600
ENDCHAR
STARTCHAR tcaron
ENCODING 357
SWIDTH 842 0
DWIDTH 13 0
BBX 13 12 0 0
BITMAP
0038
FFB8
FF98
FF98
2E30
2E00
2E00
2E00
2E00
2E00
2E00
2E00
ENDCHAR
STARTCHAR Tbar
ENCODING 358
SWIDTH 591 0
DWIDTH 9 0
BBX 9 13 0 0
BITMAP
FF80
FF80
FF80
1600
1600
5780
5780
5780
1600
1600
1600
1600
1600
ENDCHAR
STARTCHAR tbar
ENCODING 359
SWIDTH 588 0
DWIDTH 9 0
BBX 9 11 0 0
BITMAP
FF80
FF80
FF80
2E00
2E00
6F80
6F80
6F80
2E00
2E00
2E00
ENDCHAR
STARTCHAR Utilde
ENCODING 360
SWIDTH 905 0
DWIDTH 14 0
BBX 13 18 1 -1
BITMAP
3F60
5FA0
6FC0
0000
B078
B078
B078
B078
B078
B078
B078
B078
F0B8
EB68
BDB0
5AE0
37C0
0F00
ENDCHAR
STARTCHAR utilde
ENCODING 361
SWIDTH 795 0
DWIDTH 13 0
BBX 11 17 1 -1
BITMAP
3EC0
7FC0
BF80
0000
0000
B1E0
B1E0
B1E0
B1E0
B1E0
B1E0
B1E0
EEE0
DBA0
7540
3F80
0E00
ENDCHAR
STARTCHAR Umacron
ENCODING 362
SWIDTH 905 0
DWIDTH 14 0
BBX 13 14 1 -1
BITMAP
B078
B078
B078
B078
B078
B078
B078
B078
F0B8
EB68
BDB0
5AE0
37C0
0F00
ENDCHAR
STARTCHAR umacron
ENCODING 363
SWIDTH 795 0
DWIDTH 13 0
BBX 11 12 1 -1
BITMAP
B1E0
B1E0
B1E0
B1E0
B1E0
B1E0
B1E0
EEE0
DBA0
7540
3F80
0E00
ENDCHAR
STARTCHAR Ubreve
ENCODING 364
SWIDTH 905 0
DWIDTH 14 0
BBX 13 17 1 -1
BITMAP
0F80
0400
0000
B078
B078
B078
B078
B078
B078
B078
B078
F0B8
EB68
BDB0
5AE0
37C0
0F00
ENDCHAR
STARTCHAR ubreve
ENCODING 365
SWIDTH 795 0
DWIDTH 13 0
BBX 11 15 1 -1
BITMAP
1F00
0800
0000
B1E0
B1E0
B1E0
B1E0
B1E0
B1E0
B1E0
EEE0
DBA0
7540
3F80
0E00
ENDCHAR
STARTCHAR Uring
ENCODING 366
SWIDTH 905 0
DWIDTH 14 0
BBX 13 20 1 -1
BITMAP
0200
0F00
0900
0F00
0600
0000
B078
B078
B078
B078
B078
B078
B078
B078
F0B8
EB68
BDB0
5AE0
37C0
0F00
ENDCHAR
STARTCHAR uring
ENCODING 367
SWIDTH 795 0
DWIDTH 13 0
BBX 11 18 1 -1
BITMAP
0C00
1600
1A00
1600
0C00
0000
B1E0
B1E0
B1E0
B1E0
B1E0
B1E0
B1E0
EEE0
DBA0
7540
3F80
0E00
ENDCHAR
STARTCHAR Uhungarumlaut
ENCODING 368
SWIDTH 905 0
DWIDTH 14 0
BBX 14 19 1 -1
BITMAP
0718
1BEC
2CB0
1040
0000
B078
B078
B078
B078
B078
B078
B078
B078
F0B8
EB68
BDB0
5AE0
37C0
0F00
ENDCHAR
STARTCHAR uhungarumlaut
ENCODING 369
SWIDTH 795 0
DWIDTH 13 0
BBX 13 17 1 -1
BITMAP
0638
1FD8
7960
2080
0000
B1E0
B1E0
B1E0
B1E0
B1E0
B1E0
B1E0
EEE0
DBA0
7540
3F80
0E00
ENDCHAR
STARTCHAR Uogonek
ENCODING 370
SWIDTH 905 0
DWIDTH 14 0
BBX 13 19 1 -6
BITMAP
B078
B078
B078
B078
B078
B078
B078
B078
F0B8
EB68
BDB0
5AE0
37C0
0F00
0A00
0C00
0E00
0E00
0E00
ENDCHAR
STARTCHAR uogonek
ENCODING 371
SWIDTH 794 0
DWIDTH 13 0
BBX 11 17 1 -6
BITMAP
B1E0
B1E0
B1E0
B1E0
B1E0
B1E0
B1E0
EEE0
DBA0
7540
3F80
0E00
1400
1800
1C00
1C00
1C00
ENDCHAR
STARTCHAR Ycircumflex
ENCODING 374
SWIDTH 789 0
DWIDTH 13 0
BBX 12 18 0 0
BITMAP
0500
0700
0B00
0D80
0000
D0F0
78B0
75E0
3D60
3BC0
1DC0
1F40
0B80
0E80
0F00
0F00
0F00
0F00
ENDCHAR
STARTCHAR ycircumflex
ENCODING 375
SWIDTH 733 0
DWIDTH 12 0
BBX 12 17 0 0
BITMAP
0600
0D00
0B00
1700
0000
4010
A9E0
7960
5FC0
3AC0
2F80
1B80
0E80
0F00
0F00
0F00
0F00
ENDCHAR
STARTCHAR Ydieresis
ENCODING 376
SWIDTH 789 0
DWIDTH 13 0
BBX 12 16 0 0
BITMAP
35C0
35C0
0000
D0F0
78B0
75E0
3D60
3BC0
1DC0
1F40
0B80
0E80
0F00
0F00
0F00
0F00
ENDCHAR
STARTCHAR Zacute
ENCODING 377
SWIDTH 854 0
DWIDTH 14 0
BBX 12 18 1 0
BITMAP
00C0
03E0
0F00
0400
0000
FFF0
FFB0
FEE0
FD50
07F0
0AA0
3FC0
5500
FE00
ABF0
FFF0
DFF0
FFF0
ENDCHAR
STARTCHAR zacute
ENCODING 378
SWIDTH 714 0
DWIDTH 11 0
BBX 11 16 0 0
BITMAP
00C0
03E0
0F00
0400
0000
7EE0
7FA0
7EC0
0B80
0E80
1B00
2D00
3600
5DE0
77E0
DFE0
ENDCHAR
STARTCHAR Zdotaccent
ENCODING 379
SWIDTH 854 0
DWIDTH 14 0
BBX 12 17 1 0
BITMAP
0E00
0E00
0E00
0000
FFF0
FFB0
FEE0
FD50
07F0
0AA0
3FC0
5500
FE00
ABF0
FFF0
DFF0
FFF0
ENDCHAR
STARTCHAR zdotaccent
ENCODING 380
SWIDTH 714 0
DWIDTH 11 0
BBX 11 15 0 0
BITMAP
0E00
0E00
0E00
0000
7EE0
7FA0
7EC0
0B80
0E80
1B00
2D00
3600
5DE0
77E0
DFE0
ENDCHAR
STARTCHAR Zcaron
ENCODING 381
SWIDTH 854 0
DWIDTH 14 0
BBX 12 18 1 0
BITMAP
1700
0B00
0D00
0600
0000
FFF0
FFB0
FEE0
FD50
07F0
0AA0
3FC0
5500
FE00
ABF0
FFF0
DFF0
FFF0
ENDCHAR
STARTCHAR zcaron
ENCODING 382
SWIDTH 714 0
DWIDTH 11 0
BBX 11 17 0 0
BITMAP
1700
0B00
0E00
0600
0000
0000
7EE0
7FA0
7EC0
0B80
0E80
1B00
2D00
3600
5DE0
77E0
DFE0
ENDCHAR
STARTCHAR florin
ENCODING 402
SWIDTH 388 0
DWIDTH 6 0
BBX 5 15 1 -1
BITMAP
08
78
60
B8
B0
B8
B8
B8
B0
B0
B0
B0
D0
E0
C0
ENDCHAR
STARTCHAR uni01C4
ENCODING 452
SWIDTH 1740 0
DWIDTH 28 0
BBX 26 18 1 0
BITMAP
00003A00
00003C00
00002C00
00001800
00000000
FF83FFC0
FFE3FEC0
BF53FFC0
BFB3F540
B0E81FC0
B0D82A80
B0A8FF00
B0D95400
B0EBF800
BFB2AFC0
BF53DFC0
FFE57FC0
FF83FFC0
ENDCHAR
STARTCHAR uni01C5
ENCODING 453
SWIDTH 1601 0
DWIDTH 26 0
BBX 24 17 1 0
BITMAP
000078
000078
000068
000030
FF8000
FFE008
BF53F7
BFB3FB
B0EBF6
B0D85A
B0A86C
B0D8B8
B0E8E8
BFB1B0
BF52DF
FFE37F
FF87FF
ENDCHAR
STARTCHAR Scommaaccent
ENCODING 536
SWIDTH 682 0
DWIDTH 11 0
BBX 11 20 0 -6
BITMAP
0C00
37C0
59E0
7F80
DF00
DA00
BD80
5340
2FC0
1FA0
17A0
2BC0
F540
6F80
1E00
0E00
0E00
0600
0A00
0C00
ENDCHAR
STARTCHAR scommaaccent
ENCODING 537
SWIDTH 683 0
DWIDTH 11 0
BBX 11 18 0 -6
BITMAP
0500
3AC0
75E0
DB80
D000
6F80
7F40
1FC0
0140
7FA0
B340
7F80
0000
0E00
0E00
0600
0A00
0C00
ENDCHAR
STARTCHAR uni021A
ENCODING 538
SWIDTH 591 0
DWIDTH 9 0
BBX 9 19 0 -6
BITMAP
FF80
FF80
FF80
1600
1600
1600
1600
1600
1600
1600
1600
1600
1600
0000
1C00
1C00
0C00
0C00
1C00
ENDCHAR
STARTCHAR uni021B
ENCODING 539
SWIDTH 588 0
DWIDTH 9 0
BBX 9 17 0 -6
BITMAP
FF80
FF80
FF80
2E00
2E00
2E00
2E00
2E00
2E00
2E00
2E00
0000
1C00
1C00
0C00
0C00
1C00
ENDCHAR
STARTCHAR uni0237
ENCODING 567
SWIDTH 393 0
DWIDTH 6 0
BBX 6 13 0 -2
BITMAP
54
54
54
54
54
54
54
54
6C
F8
A8
F0
C0
ENDCHAR
STARTCHAR circumflex
ENCODING 710
SWIDTH 376 0
DWIDTH 6 0
BBX 4 4 1 12
BITMAP
60
D0
F0
F0
ENDCHAR
STARTCHAR caron
ENCODING 711
SWIDTH 362 0
DWIDTH 6 0
BBX 5 4 0 12
BITMAP
B8
78
68
30
ENDCHAR
STARTCHAR breve
ENCODING 728
SWIDTH 360 0
DWIDTH 6 0
BBX 4 1 1 13
BITMAP
F0
ENDCHAR
STARTCHAR dotaccent
ENCODING 729
SWIDTH 255 0
DWIDTH 4 0
BBX 2 3 1 10
BITMAP
C0
C0
C0
ENDCHAR
STARTCHAR ring
ENCODING 730
SWIDTH 330 0
DWIDTH 5 0
BBX 4 5 1 12
BITMAP
60
D0
B0
D0
60
ENDCHAR
STARTCHAR ogonek
ENCODING 731
SWIDTH 250 0
DWIDTH 4 0
BBX 2 6 1 -5
BITMAP
40
80
C0
C0
C0
C0
ENDCHAR
STARTCHAR tilde
ENCODING 732
SWIDTH 665 0
DWIDTH 11 0
BBX 9 3 1 9
BITMAP
7D80
FF80
BF00
ENDCHAR
STARTCHAR hungarumlaut
ENCODING 733
SWIDTH 837 0
DWIDTH 13 0
BBX 12 4 1 11
BITMAP
1870
6DE0
B780
C200
ENDCHAR
STARTCHAR uni0307
ENCODING 775
SWIDTH 260 0
DWIDTH 4 0
BBX 2 3 1 6
BITMAP
C0
C0
C0
ENDCHAR
STARTCHAR uni030F
ENCODING 783
SWIDTH 554 0
DWIDTH 9 0
BBX 8 5 0 12
BITMAP
EA
66
56
33
33
ENDCHAR
STARTCHAR uni0311
ENCODING 785
SWIDTH 375 0
DWIDTH 6 0
BBX 4 1 1 13
BITMAP
F0
ENDCHAR
STARTCHAR uni0326
ENCODING 806
SWIDTH 274 0
DWIDTH 4 0
BBX 3 5 1 -6
BITMAP
A0
A0
60
A0
C0
ENDCHAR
STARTCHAR Omega
ENCODING 937
SWIDTH 92 0
DWIDTH 1 0
BBX 1 1 0 0
BITMAP
00
ENDCHAR
STARTCHAR uni00B5.dup2
ENCODING 956
SWIDTH 802 0
DWIDTH 13 0
BBX 11 13 1 -2
BITMAP
B1E0
B1E0
B1E0
B1E0
B1E0
B1E0
B1E0
B6E0
BBA0
B540
BF80
BE00
B000
ENDCHAR
STARTCHAR pi
ENCODING 960
SWIDTH 92 0
DWIDTH 1 0
BBX 1 1 0 0
BITMAP
00
ENDCHAR
STARTCHAR endash
ENCODING 8211
SWIDTH 473 0
DWIDTH 8 0
BBX 6 3 1 5
BITMAP
FC
FC
FC
ENDCHAR
STARTCHAR emdash
ENCODING 8212
SWIDTH 615 0
DWIDTH 10 0
BBX 8 3 1 5
BITMAP
FF
FF
FF
ENDCHAR
STARTCHAR quoteleft
ENCODING 8216
SWIDTH 254 0
DWIDTH 4 0
BBX 2 5 1 8
BITMAP
40
C0
80
C0
C0
ENDCHAR
STARTCHAR quoteright
ENCODING 8217
SWIDTH 251 0
DWIDTH 4 0
BBX 2 5 1 8
BITMAP
C0
C0
40
C0
C0
ENDCHAR
STARTCHAR quotesinglbase
ENCODING 8218
SWIDTH 252 0
DWIDTH 4 0
BBX 2 5 1 -2
BITMAP
C0
C0
40
C0
C0
ENDCHAR
STARTCHAR quotedblleft
ENCODING 8220
SWIDTH 535 0
DWIDTH 9 0
BBX 7 5 1 8
BITMAP
46
CA
8C
AE
AE
ENDCHAR
STARTCHAR quotedblright
ENCODING 8221
SWIDTH 532 0
DWIDTH 9 0
BBX 7 5 1 8
BITMAP
AE
AE
46
AE
CC
ENDCHAR
STARTCHAR quotedblbase
ENCODING 8222
SWIDTH 533 0
DWIDTH 9 0
BBX 7 5 1 -2
BITMAP
AE
AE
46
A6
CC
ENDCHAR
STARTCHAR dagger
ENCODING 8224
SWIDTH 636 0
DWIDTH 10 0
BBX 10 13 0 0
BITMAP
1E00
1E00
FFC0
1E00
FFC0
FFC0
1E00
1E00
1E00
1E00
1E00
1E00
1E00
ENDCHAR
STARTCHAR daggerdbl
ENCODING 8225
SWIDTH 648 0
DWIDTH 10 0
BBX 9 13 1 0
BITMAP
3C00
3C00
3C00
FF80
3C00
FF80
3C00
3C00
FF80
FF80
FB80
3C00
3C00
ENDCHAR
STARTCHAR bullet
ENCODING 8226
SWIDTH 501 0
DWIDTH 8 0
BBX 7 7 1 2
BITMAP
78
FC
8A
84
CA
B4
78
ENDCHAR
STARTCHAR ellipsis
ENCODING 8230
SWIDTH 676 0
DWIDTH 11 0
BBX 9 3 1 0
BITMAP
DF80
DF80
DF80
ENDCHAR
STARTCHAR perthousand
ENCODING 8240
SWIDTH 447 0
DWIDTH 7 0
BBX 7 15 0 -2
BITMAP
0E
14
1C
1C
1C
28
38
38
38
50
70
70
70
A0
E0
ENDCHAR
STARTCHAR guilsinglleft
ENCODING 8249
SWIDTH 465 0
DWIDTH 7 0
BBX 6 8 1 2
BITMAP
0C
34
D8
EC
78
B4
7C
0C
ENDCHAR
STARTCHAR guilsinglright
ENCODING 8250
SWIDTH 465 0
DWIDTH 7 0
BBX 6 8 1 2
BITMAP
80
E0
7C
D8
74
EC
B0
C0
ENDCHAR
STARTCHAR fraction
ENCODING 8260
SWIDTH 447 0
DWIDTH 7 0
BBX 7 15 0 -2
BITMAP
0E
14
1C
1C
1C
28
38
38
38
50
70
70
70
A0
E0
ENDCHAR
STARTCHAR uni2074
ENCODING 8308
SWIDTH 528 0
DWIDTH 8 0
BBX 7 10 1 3
BITMAP
38
58
70
B0
EC
EC
FE
FE
FE
0C
ENDCHAR
STARTCHAR Euro
ENCODING 8364
SWIDTH 781 0
DWIDTH 13 0
BBX 12 15 0 -1
BITMAP
01A0
06D0
0F30
1BE0
37E0
3C00
D780
6800
D780
3C00
37A0
1B60
0EB0
07D0
01E0
ENDCHAR
STARTCHAR trademark
ENCODING 8482
SWIDTH 1503 0
DWIDTH 24 0
BBX 23 10 0 3
BITMAP
FFB40E
FFAC1A
FFBA1E
1C2E36
1C3B3E
1C3F6E
1C3DBE
1C3BDE
1C3AEE
1C39CE
ENDCHAR
STARTCHAR partialdiff
ENCODING 8706
SWIDTH 108 0
DWIDTH 2 0
BBX 1 1 0 0
BITMAP
00
ENDCHAR
STARTCHAR uni2206
ENCODING 8710
SWIDTH 108 0
DWIDTH 2 0
BBX 1 1 0 0
BITMAP
00
ENDCHAR
STARTCHAR product
ENCODING 8719
SWIDTH 521 0
DWIDTH 8 0
BBX 8 11 0 0
BITMAP
3C
3A
56
6E
7B
B7
7D
76
5A
3C
34
ENDCHAR
STARTCHAR summation
ENCODING 8721
SWIDTH 108 0
DWIDTH 2 0
BBX 1 1 0 0
BITMAP
00
ENDCHAR
STARTCHAR minus
ENCODING 8722
SWIDTH 555 0
DWIDTH 9 0
BBX 7 2 1 6
BITMAP
FE
FE
ENDCHAR
STARTCHAR radical
ENCODING 8730
SWIDTH 108 0
DWIDTH 2 0
BBX 1 1 0 0
BITMAP
00
ENDCHAR
STARTCHAR infinity
ENCODING 8734
SWIDTH 108 0
DWIDTH 2 0
BBX 1 1 0 0
BITMAP
00
ENDCHAR
STARTCHAR integral
ENCODING 8747
SWIDTH 362 0
DWIDTH 6 0
BBX 5 15 0 -1
BITMAP
08
38
30
68
68
68
68
68
68
68
68
68
F0
D0
E0
ENDCHAR
STARTCHAR approxequal
ENCODING 8776
SWIDTH 665 0
DWIDTH 11 0
BBX 9 7 1 5
BITMAP
7D80
FF80
BF00
0000
7D80
FF80
BF00
ENDCHAR
STARTCHAR notequal
ENCODING 8800
SWIDTH 473 0
DWIDTH 8 0
BBX 7 15 0 -2
BITMAP
0E
14
1C
7E
1C
6E
38
38
7E
7E
7E
70
70
A0
E0
ENDCHAR
STARTCHAR lessequal
ENCODING 8804
SWIDTH 108 0
DWIDTH 2 0
BBX 1 1 0 0
BITMAP
00
ENDCHAR
STARTCHAR greaterequal
ENCODING 8805
SWIDTH 108 0
DWIDTH 2 0
BBX 1 1 0 0
BITMAP
00
ENDCHAR
STARTCHAR lozenge
ENCODING 9674
SWIDTH 521 0
DWIDTH 8 0
BBX 8 11 0 0
BITMAP
3C
3A
56
6E
7B
B7
7D
76
5A
3C
34
ENDCHAR
STARTCHAR uniF8FF
ENCODING 63743
SWIDTH 108 0
DWIDTH 2 0
BBX 1 1 0 0
BITMAP
00
ENDCHAR
STARTCHAR uniFB01
ENCODING 64257
SWIDTH 962 0
DWIDTH 15 0
BBX 14 11 1 0
BITMAP
BF2C
BF2C
BF2C
B02C
BF2C
BF2C
BF2C
B02C
B02C
B02C
B02C
ENDCHAR
STARTCHAR uniFB02
ENCODING 64258
SWIDTH 1208 0
DWIDTH 19 0
BBX 18 11 1 0
BITMAP
BF2C00
BF2C00
BF2C00
B02C00
BF2C00
BF2C00
BF2C00
B02C00
B02FC0
B02FC0
B02FC0
ENDCHAR
STARTCHAR .notdef
ENCODING -1
SWIDTH 108 0
DWIDTH 2 0
BBX 1 1 0 0
BITMAP
00
ENDCHAR
ENDFONT
